<?xml version="1.0" standalone="no"?>
<!DOCTYPE svg PUBLIC "-//W3C//DTD SVG 1.1//EN" "http://www.w3.org/Graphics/SVG/1.1/DTD/svg11.dtd" >
<svg xmlns="http://www.w3.org/2000/svg">
<metadata>Generated by IcoMoon</metadata>
<defs>
<font id="genericadmin" horiz-adv-x="1024">
<font-face units-per-em="1024" ascent="960" descent="-64" />
<missing-glyph horiz-adv-x="1024" />
<glyph unicode="&#x20;" horiz-adv-x="512" d="" />
<glyph unicode="&#xe900;" glyph-name="plus" d="M928.768 522.411h-342.699v344.064c0 40.96-33.109 74.411-74.069 74.411s-74.069-33.109-74.069-74.411v-344.064h-342.699c-40.96 0-74.069-33.109-74.069-74.411 0-40.96 33.109-74.411 74.069-74.411h342.699v-344.064c0-40.96 33.109-74.411 74.069-74.411s74.069 33.451 74.069 74.411v344.064h342.699c40.96 0 74.069 33.109 74.069 74.411 0 40.96-33.451 74.411-74.069 74.411z" />
<glyph unicode="&#xe901;" glyph-name="edit" d="M333.141 396.459c-0.683-0.683-1.365-1.707-1.365-2.731l-47.787-182.613c-2.731-10.581 0-22.187 7.509-30.037 5.803-5.803 12.971-8.875 21.163-8.875 2.731 0 5.12 0.341 7.851 1.024l174.080 49.493c0.341 0 0.341-0.341 0.683-0.341 2.048 0 4.096 0.683 5.461 2.389l464.896 484.352c13.653 14.336 21.504 34.133 21.504 55.296 0 24.235-9.899 48.469-26.965 66.219l-44.032 45.739c-17.067 18.091-40.619 28.331-63.829 28.331-20.48 0-39.253-7.851-53.248-22.187l-465.237-484.693c-0.683-0.341-0.341-1.024-0.683-1.365zM920.235 756.565l-46.421-48.128-75.093 79.189 45.397 47.445c7.168 7.509 21.163 6.485 29.355-2.048l44.032-45.739c4.437-4.779 7.168-11.264 7.168-17.408 0.341-5.12-1.365-9.899-4.437-13.312zM415.744 388.608l335.872 349.525 75.093-79.189-335.189-348.843-75.776 78.507zM354.645 246.955l24.235 92.843 64.853-67.243-89.088-25.6zM949.589 564.736c-17.749 0-32.085-15.019-32.085-33.451v-451.925c0-23.552-18.432-43.008-41.301-43.008h-733.867c-22.869 0-41.301 19.115-41.301 43.008v737.28c0 23.552 18.432 43.008 41.301 43.008h472.747c17.749 0 32.085 15.019 32.085 33.451s-14.336 33.451-32.085 33.451h-477.525c-55.637 0-100.693-47.104-100.693-104.789v-747.52c0-57.685 45.056-104.789 100.693-104.789h743.424c55.637 0 100.693 47.104 100.693 104.789v457.045c0 18.432-14.336 33.451-32.085 33.451z" />
<glyph unicode="&#xe902;" glyph-name="SelectO1" d="M671.744 607.744l-239.957-239.957-79.531 80.213c-14.677 14.677-38.571 14.677-53.248 0s-14.677-38.571 0-53.248l106.496-106.496c7.509-7.509 17.067-10.923 26.624-10.923s19.456 3.755 26.624 10.923l266.581 266.581c14.677 14.677 14.677 38.571 0 53.248-15.019 14.677-38.571 14.677-53.589-0.341zM512-38.4c-268.288 0-486.4 218.112-486.4 486.4s218.112 486.4 486.4 486.4c268.288 0 486.4-218.112 486.4-486.4s-218.112-486.4-486.4-486.4zM512 866.133c-230.4 0-418.133-187.733-418.133-418.133s187.733-418.133 418.133-418.133 418.133 187.733 418.133 418.133-187.733 418.133-418.133 418.133z" />
<glyph unicode="&#xe903;" glyph-name="delete" d="M773.68 717.44c9.416-3.736 10.456-5.664 11.056-15.216 0-177.024 0.56-354.048 0-531.064-0.616-64.76-56.024-124.28-124.936-124.936-98.040-0.312-196.088-0.312-294.128 0-65.128 0.616-124.288 57.144-124.936 124.936v531.064c0 0 7.416 24.392 24.576 13.504 4.52-2.864 7.080-8.032 7.424-13.504 0-177.16-1.672-354.32 0.008-531.472 0.76-48.048 41.912-91.72 92.528-92.52 98.304-0.936 196.624-0.936 294.928 0 48.584 0.768 92.376 42.88 92.536 93.76v530.232c0.64 10.168 9.952 18.040 20.944 15.216zM514.528 682.12c7.88-1.336 13.752-7.72 14.208-15.896v-512c-0.832-14.816-7.344-15.128-14.208-15.904-8.952-1.008-17.28 6.712-17.792 15.904v512c0.512 9.080 7.84 16.456 17.792 15.896zM642.528 682.12c7.88-1.336 13.752-7.72 14.208-15.896v-512c-0.728-12.976-17.696-20.936-27.312-11.32-2.792 2.792-4.32 4.696-4.688 11.32v512c0.512 9.080 7.84 16.456 17.792 15.896zM386.528 682.12c7.88-1.336 13.752-7.72 14.208-15.896v-512c-0.736-13.104-18.048-20.584-27.312-11.32-2.792 2.792-4.32 4.696-4.688 11.32v512c0.512 9.080 7.84 16.456 17.792 15.896zM844.736 742.224h-660c-0.672 0.040-1.336 0.080-2.008 0.12-13.6 2.6-13.536 8.072-13.96 14.872-0.544 8.632 6.936 16.44 15.968 17.008h184l0.008 44.712c0.544 14.28 12.696 26.72 27.28 27.28 77.6 0.976 155.208 0.008 232.816 0.008 14.704-0.184 27.704-12.872 27.896-27.904v-44.096h188c0 0 25.912-9.784 12.328-26.2-2.976-3.6-7.52-5.504-12.328-5.8zM400.736 774.224h224v40h-224v-40z" />
<glyph unicode="&#xe904;" glyph-name="Refresh" d="M975.189 802.645c-0.341 0-0.683 0-0.683 0.341-25.941 7.851-53.589-6.485-61.44-32.427 0 0 0 0 0 0l-20.48-67.584c-140.629 211.968-427.008 269.653-638.976 129.024-76.8-51.2-136.533-123.904-171.691-209.237l-12.288-31.061-1.024-2.389c-9.557-25.259 3.072-53.589 28.672-63.488 25.259-9.557 53.931 3.072 63.488 28.672l12.288 31.061c75.776 185.344 287.403 273.749 472.747 198.315 67.925-27.648 125.952-75.435 165.888-136.875l-82.261 25.941h-2.389c-26.283 6.485-52.907-9.216-59.733-35.499-6.485-25.259 8.192-51.2 33.109-59.051l188.075-57.344c25.941-7.851 53.589 6.485 61.44 32.427 0 0 0 0 0 0l57.344 187.733c8.192 25.6-6.144 53.248-32.085 61.44zM915.797 366.080c-25.941 8.192-53.589-6.144-61.781-32.085-61.099-190.805-265.216-295.936-456.021-234.837-79.531 25.259-147.797 77.483-193.195 147.115l87.040-21.845c26.283-6.827 53.248 9.216 60.075 35.499s-9.216 53.248-35.499 60.075l-191.147 47.445c-26.283 6.485-52.907-9.557-59.392-35.84l-47.445-190.464v-2.048c-6.144-26.283 10.24-52.565 36.523-58.709 26.283-5.803 52.565 10.581 58.709 36.864l16.043 64.512c145.067-208.896 432.469-260.779 641.707-115.712 83.285 58.027 145.408 141.653 176.128 238.251 8.533 25.941-5.803 53.248-31.744 61.781z" />
<glyph unicode="&#xe905;" glyph-name="uparrow" horiz-adv-x="1463" d="M0 155.429l731.429 731.429 731.429-731.429h-1462.857z" />
<glyph unicode="&#xe906;" glyph-name="arrowDown" d="M513.707 198.827c16.043 0 32.085 6.144 44.373 18.091l375.808 372.053c24.576 24.235 24.576 63.488 0 87.723s-64.171 24.235-88.747 0l-331.776-328.021-331.435 328.021c-24.576 24.235-64.171 24.235-88.747 0s-24.576-63.488 0-87.723l375.808-372.053c12.629-11.947 28.672-18.091 44.715-18.091z" />
<glyph unicode="&#xe907;" glyph-name="search" d="M744.448 264.704c56.32 66.901 90.112 152.576 90.112 246.443 0 212.651-174.763 385.365-390.144 385.365s-389.803-172.715-389.803-385.365 174.763-385.365 390.144-385.365c94.891 0 182.272 33.451 249.856 89.429l221.525-218.795 50.176 49.493-221.867 218.795zM444.757 195.755c-176.128 0-319.147 140.971-319.147 315.392 0 174.080 143.019 315.392 319.147 315.392 176.469 0 319.147-140.971 319.147-315.392 0-174.080-143.019-315.392-319.147-315.392zM249.515 511.147h-35.499c0.341-125.611 103.424-227.328 230.4-227.669v34.816c-107.52 0.341-194.56 86.357-194.901 192.853z" />
<glyph unicode="&#xe908;" glyph-name="logo" d="M512 913.92c-263.509 0-477.525-213.675-477.525-477.525 0-136.875 58.368-259.413 149.845-347.136 77.824-74.752 166.912-107.179 275.456-107.179 115.029 0 165.547 37.888 171.349 60.075 6.144 22.528-12.288 46.763-103.765 63.147s-422.229 30.72-417.451 325.632c4.096 254.635 268.629 305.493 390.485 305.493 85.675 0 209.92-6.144 401.408-128.341l-152.576-201.728c0 0-116.053 67.243-201.728 83.627-85.333 16.384-148.48 0-150.528-32.427s54.955-40.619 99.669-50.859c44.715-10.24 197.632-34.133 276.821-83.285 53.589-33.109 111.616-77.141 136.875-149.504 49.835 75.435 78.848 165.547 78.848 262.485 0.341 263.851-213.675 477.525-477.184 477.525zM734.891 273.92c-27.307 0-49.152-22.187-49.152-49.152 0-27.307 22.187-49.152 49.152-49.152 27.307 0 49.152 22.187 49.152 49.152 0.341 26.965-21.845 49.152-49.152 49.152zM758.443 134.997h-47.445c-17.749 0-27.989-14.336-27.989-31.744v-110.592c39.595 14.677 79.189 33.451 103.083 56.32v54.613c0.341 17.067-9.899 31.403-27.648 31.403z" />
<glyph unicode="&#xe909;" glyph-name="logout" d="M512 533.333c46.933 0 85.333 38.4 85.333 85.333v170.667c0 46.933-38.4 85.333-85.333 85.333s-85.333-38.4-85.333-85.333v-170.667c0-46.933 38.4-85.333 85.333-85.333zM814.933 750.933v0c-12.8 12.8-25.6 17.067-46.933 17.067-34.133 0-64-29.867-64-64 0-17.067 8.533-34.133 17.067-46.933v0c0 0 0 0 0 0s0 0 0 0c55.467-55.467 85.333-128 85.333-209.067 0-166.4-132.267-298.667-298.667-298.667s-298.667 132.267-298.667 298.667c0 81.067 34.133 157.867 89.6 209.067v0c12.8 12.8 21.333 29.867 21.333 46.933 0 34.133-29.867 64-64 64-17.067 0-34.133-8.533-46.933-17.067v0c-76.8-76.8-123.733-183.467-123.733-302.933 0-234.667 192-426.667 426.667-426.667s426.667 192 426.667 426.667c0 119.467-46.933 226.133-123.733 302.933z" />
<glyph unicode="&#xe90a;" glyph-name="date" d="M231.765 531.285h82.944c10.24 0 18.432 8.533 18.432 19.115s-8.192 19.115-18.432 19.115h-82.944c-10.24 0-18.432-8.533-18.432-19.115 0.341-10.923 8.533-19.115 18.432-19.115zM470.357 531.285h82.944c10.24 0 18.432 8.533 18.432 19.115s-8.192 19.115-18.432 19.115h-82.944c-10.24 0-18.432-8.533-18.432-19.115 0.341-10.923 8.533-19.115 18.432-19.115zM708.949 531.285h83.285c10.24 0 18.432 8.533 18.432 19.115s-8.192 19.115-18.432 19.115h-83.285c-10.24 0-18.432-8.533-18.432-19.115 0.341-10.923 8.192-19.115 18.432-19.115zM231.765 402.261h82.944c10.24 0 18.432 8.533 18.432 19.115s-8.192 19.115-18.432 19.115h-82.944c-10.24 0-18.432-8.533-18.432-19.115 0.341-10.581 8.533-19.115 18.432-19.115zM470.357 402.261h82.944c10.24 0 18.432 8.533 18.432 19.115s-8.192 19.115-18.432 19.115h-82.944c-10.24 0-18.432-8.533-18.432-19.115 0.341-10.581 8.533-19.115 18.432-19.115zM708.949 402.261h83.285c10.24 0 18.432 8.533 18.432 19.115s-8.192 19.115-18.432 19.115h-83.285c-10.24 0-18.432-8.533-18.432-19.115 0.341-10.581 8.192-19.115 18.432-19.115zM231.765 273.579h82.944c10.24 0 18.432 8.533 18.432 19.115s-8.192 19.115-18.432 19.115h-82.944c-10.24 0-18.432-8.533-18.432-19.115 0.341-10.581 8.533-19.115 18.432-19.115zM470.357 273.579h82.944c10.24 0 18.432 8.533 18.432 19.115s-8.192 19.115-18.432 19.115h-82.944c-10.24 0-18.432-8.533-18.432-19.115 0.341-10.581 8.533-19.115 18.432-19.115zM708.949 273.579h83.285c10.24 0 18.432 8.533 18.432 19.115s-8.192 19.115-18.432 19.115h-83.285c-10.24 0-18.432-8.533-18.432-19.115 0.341-10.581 8.192-19.115 18.432-19.115zM231.765 144.896h82.944c10.24 0 18.432 8.533 18.432 19.115s-8.192 19.115-18.432 19.115h-82.944c-10.24 0-18.432-8.533-18.432-19.115 0.341-10.581 8.533-19.115 18.432-19.115zM470.357 144.896h82.944c10.24 0 18.432 8.533 18.432 19.115s-8.192 19.115-18.432 19.115h-82.944c-10.24 0-18.432-8.533-18.432-19.115 0.341-10.581 8.533-19.115 18.432-19.115zM708.949 144.896h83.285c10.24 0 18.432 8.533 18.432 19.115s-8.192 19.115-18.432 19.115h-83.285c-10.24 0-18.432-8.533-18.432-19.115 0.341-10.581 8.192-19.115 18.432-19.115zM828.757 908.459h-57.344v-51.883c0-12.288-9.557-22.528-21.504-22.528s-21.504 10.24-21.504 22.528v51.883h-432.469v-51.883c0-12.288-9.557-22.528-21.504-22.528s-21.504 10.24-21.504 22.528v51.883h-57.685c-49.493 0-89.429-41.984-89.429-93.184v-635.563c0-105.813 82.603-192.171 184.661-192.171h443.733c101.717 0 184.661 86.357 184.661 192.171v635.563c-0.341 51.541-40.619 93.184-90.112 93.184zM882.005 179.712c0-84.992-66.219-153.941-147.797-153.941h-444.075c-81.579 0-147.797 69.291-147.797 153.941v534.869h739.669v-534.869zM882.005 752.811h-740.011v62.464c0 30.379 23.893 55.296 52.907 55.296h21.163v-13.995c0-33.451 25.941-60.757 58.027-60.757s58.027 27.307 58.027 60.757v13.995h359.083v-13.995c0-33.451 25.941-60.757 58.027-60.757s58.027 27.307 58.027 60.757v13.995h21.163c29.355 0 52.907-24.917 52.907-55.296v-62.464z" />
<glyph unicode="&#xe90b;" glyph-name="Sort02-06" d="M491.52 624.128h-381.611c-23.552 0-43.008 19.456-43.008 43.008 0 23.893 19.115 43.008 43.008 43.008h381.611c23.552 0 43.008-19.456 43.008-43.008s-19.456-43.008-43.008-43.008zM491.52 376.661h-381.611c-23.552 0-43.008 19.456-43.008 43.008 0 23.893 19.115 43.008 43.008 43.008h381.611c23.552 0 43.008-19.456 43.008-43.008s-19.456-43.008-43.008-43.008zM491.52 111.445h-381.611c-23.552 0-43.008 19.456-43.008 43.008 0 23.893 19.115 43.008 43.008 43.008h381.611c23.552 0 43.008-19.456 43.008-43.008 0-23.893-19.456-43.008-43.008-43.008zM944.469 499.883c-16.725-16.725-43.691-16.725-60.416 0l-136.533 137.216v-482.987c0-23.893-19.115-43.008-43.008-43.008-23.552 0-43.008 19.456-43.008 43.008v587.776c0 23.893 19.115 43.008 43.008 43.008 10.581 0 20.139-3.755 27.648-9.899 1.024-1.024 212.309-214.357 212.309-214.357 16.725-16.725 16.725-44.032 0-60.757z" />
<glyph unicode="&#xe90c;" glyph-name="Sort01-05" d="M534.528 228.864c0-23.893-19.115-43.008-43.008-43.008h-381.611c-23.552 0-43.008 19.456-43.008 43.008 0 23.893 19.115 43.008 43.008 43.008h381.611c23.552 0 43.008-19.456 43.008-43.008zM534.528 475.989c0-23.893-19.115-43.008-43.008-43.008h-381.611c-23.552 0-43.008 19.456-43.008 43.008 0 23.893 19.115 43.008 43.008 43.008h381.611c23.552 0.341 43.008-19.115 43.008-43.008zM534.528 741.547c0-23.893-19.115-43.008-43.008-43.008h-381.611c-23.552 0-43.008 19.456-43.008 43.008 0 23.893 19.115 43.008 43.008 43.008h381.611c23.552 0 43.008-19.115 43.008-43.008zM944.128 335.36c0 0-211.285-213.333-212.309-214.357-7.509-6.144-17.067-9.899-27.648-9.899-23.552 0-43.008 19.456-43.008 43.008v587.776c0 23.893 19.115 43.008 43.008 43.008 23.552 0 43.008-19.456 43.008-43.008v-482.987l136.533 137.216c16.725 16.725 44.032 16.725 60.416 0 17.067-16.725 17.067-44.032 0-60.757z" />
<glyph unicode="&#xe90d;" glyph-name="success" d="M980.651 799.915c-11.264 12.971-27.648 18.432-44.373 18.432s-31.403-5.461-44.373-18.432l-574.464-574.123-185.003 185.003c-11.264 12.971-27.648 18.432-44.373 18.432s-31.403-5.461-44.373-18.432c-24.235-24.235-24.235-64.853 0-88.747l225.963-225.963c12.971-12.971 31.403-18.432 48.128-18.432 18.432 0 35.157 5.461 48.128 18.432l614.741 614.741c23.893 24.235 23.893 64.853 0 89.088z" />
<glyph unicode="&#xe90e;" glyph-name="unavailable" d="M913.067 516.267h-798.72c-36.864 0-66.56-29.696-66.56-66.56s29.696-66.56 66.56-66.56h798.72c36.864 0 66.56 29.696 66.56 66.56s-29.696 66.56-66.56 66.56z" />
<glyph unicode="&#xe90f;" glyph-name="slash" d="M273.749-46.933l360.448 989.867h116.395l-363.179-989.867h-113.664z" />
<glyph unicode="&#xe910;" glyph-name="cancel" d="M585.728 449.024l362.837 362.837c21.163 20.48 21.845 54.272 1.365 75.435-10.581 10.923-25.259 16.725-40.619 16.384-13.653-0.341-26.965-6.144-36.523-15.701l-361.813-361.813-362.837 361.472c-10.24 10.24-23.893 16.043-38.229 15.701-2.048 0-3.755 0-5.803 0-29.355-2.731-50.859-29.013-47.787-58.368 1.365-12.629 7.168-24.576 16.384-33.451l361.813-362.837-361.813-361.813c-20.821-20.821-20.821-54.955 0-75.776s54.955-20.821 75.776 0l362.837 362.837 361.813-362.837c20.821-20.821 54.955-20.821 75.776 0s20.821 54.955 0 75.776l-363.179 362.155z" />
<glyph unicode="&#xe911;" glyph-name="view" d="M971.776 510.123c-2.389 2.389-51.883 58.027-133.461 114.688-48.469 33.109-96.939 59.051-145.408 78.165-61.44 23.552-121.856 36.523-180.907 36.523s-119.467-11.947-180.907-36.523c-48.469-18.773-96.939-45.056-145.408-78.165-81.579-56.661-131.072-159.061-133.461-161.451l-12.971-15.36 12.971-15.36c2.389-2.389 51.883-104.789 133.461-161.451 48.469-33.109 96.939-59.051 145.408-78.165 61.44-23.552 121.856-36.523 180.907-36.523s119.467 11.947 180.907 36.523c48.469 18.773 96.939 45.056 145.408 78.165 81.579 56.661 131.072 159.061 133.461 161.451l12.971 15.36-12.971 62.123zM812.032 355.84c-70.997-48.469-179.541-106.496-300.032-106.496s-229.376 58.027-300.032 106.496c-53.248 36.523-92.16 73.387-112.299 93.525 20.139 20.139 59.051 56.661 110.933 92.16 70.997 48.469 179.541 106.496 300.032 106.496s229.376-58.027 300.032-106.496c53.248-36.523 92.16-73.387 112.299-93.525-18.432-20.139-57.685-56.661-110.933-92.16zM512 583.851c-75.093 0-135.851-60.757-135.851-135.851s60.757-135.851 135.851-135.851c75.093 0 135.851 60.757 135.851 135.851 0 74.752-60.757 135.851-135.851 135.851z" />
<glyph unicode="&#xe912;" glyph-name="Add" d="M512.683 929.28c-31.744-0.341-57.344-26.283-57.003-58.368 0-0.341 0-0.341 0-0.683v-364.885h-365.227c-2.048 0-4.096 0-6.144 0-31.744-1.707-56.32-28.672-54.613-60.757 1.707-31.744 28.672-56.32 60.757-54.613v0h364.885v-364.885c-0.341-31.744 24.917-58.027 56.661-58.368s58.027 24.917 58.368 56.661c0 0.683 0 1.024 0 1.707v365.227h364.885c31.744-0.341 58.027 24.917 58.368 56.661s-24.917 58.027-56.661 58.368c-0.683 0-1.024 0-1.707 0h-364.544v365.227c0.683 31.744-24.576 58.027-56.32 58.709-0.683 0-1.365 0-1.707 0z" />
<glyph unicode="&#xe913;" glyph-name="arrowRight" d="M933.205 448.341c0 6.144-3.755 14.677-7.509 18.773l-216.405 230.741c-10.24 10.581-26.624 11.605-38.229 1.024-10.581-9.557-10.923-27.989-1.024-38.229l173.739-185.003h-722.603c-15.019 0-26.965-12.288-26.965-26.965 0-15.019 12.288-27.307 26.965-27.307h722.261l-173.739-185.003c-9.899-10.24-9.216-28.331 1.024-38.229 10.581-10.581 28.331-9.557 38.229 1.024l216.405 230.741c6.485 5.803 7.509 11.947 7.851 18.432z" />
<glyph unicode="&#xe914;" glyph-name="key" d="M871.765 811.179c-34.816 35.157-81.237 54.613-130.731 54.613s-95.573-19.456-130.731-54.613c-66.219-66.56-71.339-171.691-16.043-244.736-0.341-0.341-1.024-0.683-1.707-1.024l-486.741-491.52c-9.899-9.899-9.899-25.941 0-35.84 4.779-4.779 11.264-7.509 17.749-7.509s12.971 2.389 17.749 7.509l92.843 93.867 57.685-58.027c4.779-4.779 11.264-7.509 17.749-7.509s12.971 2.389 17.749 7.509c9.899 9.899 9.899 25.941 0 35.84l-57.685 58.027 31.061 31.403 112.981-114.005c4.779-4.779 11.264-7.509 17.749-7.509s12.971 2.389 17.749 7.509c9.899 9.899 9.899 25.941 0 35.84l-112.981 114.005 292.181 294.912c0.341 0.341 0.683 1.024 1.024 1.707 32.085-24.576 70.997-38.229 111.957-38.229 49.493 0 95.915 19.456 130.731 54.613s54.272 81.92 54.272 131.755c-0.341 49.493-19.456 96.256-54.613 131.413zM836.608 583.509c-25.259-25.6-59.392-39.936-95.232-39.936s-69.632 13.995-95.232 39.936c-52.565 52.907-52.565 139.264 0 192.171 25.6 25.6 59.392 39.936 95.232 39.936s69.632-13.995 95.232-39.936c25.6-25.6 39.595-59.733 39.595-95.915s-14.336-70.656-39.595-96.256z" />
<glyph unicode="&#xe915;" glyph-name="user" d="M944.469 20.992c-13.653 199.339-204.8 356.011-433.835 356.011s-420.181-156.331-433.835-357.035c-1.024-12.629 8.533-24.235 22.187-25.259 1.024 0 1.024 0 2.048 0 11.605 0 22.187 9.557 23.211 22.187 11.605 175.445 181.589 313.003 386.389 313.003 203.776 0 373.419-136.533 386.389-311.979 1.024-12.629 11.605-23.211 25.6-22.187 12.288 1.365 22.869 11.605 21.845 25.259zM510.293 425.472c133.803 0 242.005 107.179 242.005 239.275s-108.203 239.275-242.005 239.275c-133.803 0-242.005-107.179-242.005-239.275s108.203-239.275 242.005-239.275zM510.293 855.893c106.155 0 193.195-86.016 193.195-191.147s-87.040-191.147-193.195-191.147c-106.155 0-193.195 86.016-193.195 191.147s87.040 191.147 193.195 191.147z" />
<glyph unicode="&#xe916;" glyph-name="Edit" d="M797.696 849.408c-16.043 16.043-37.888 25.259-60.757 25.259s-44.715-9.216-60.757-25.259l-495.275-498.005c-10.24-10.24-17.067-23.211-21.845-36.864l-69.973-241.323c-4.437-13.995 0-29.013 10.24-40.277 8.192-8.192 18.432-11.605 28.672-11.605 3.413 0 8.192 0 11.605 1.024l239.957 70.315c13.653 4.779 26.283 11.605 36.864 21.845l494.933 498.005c16.043 16.043 25.259 38.229 25.259 61.099 0 23.211-9.216 45.056-25.259 61.099l-113.664 114.688zM186.709 120.661l36.864 126.976 89.429-90.112-126.293-36.864zM385.365 197.803l-121.856 122.539 333.141 334.848 121.856-122.539-333.141-334.848zM855.040 669.184l-79.189-78.507-121.856 122.539 78.165 78.507c1.024 1.024 3.413 1.024 4.437 1.024s2.389 0 4.437-1.024l113.664-114.347c0-1.024 1.024-2.389 1.024-3.413 0.683-1.365 0.683-2.389-0.683-4.779z" />
<glyph unicode="&#xe917;" glyph-name="Product" d="M928.085 651.776c0 1.365-0.341 2.389-0.683 3.755 0 0.341 0 1.024 0 1.365-0.683 1.707-1.707 3.072-2.731 4.437l-244.053 260.779c-1.024 1.024-2.048 1.707-3.072 2.731h-1.024c-1.024 0.683-2.048 1.024-3.413 1.365-1.024 0-2.048 0-3.413 0h-289.109c-30.72 0-55.637-25.259-55.637-55.979v-2.389h-67.584c-30.72 0-55.979-24.917-55.979-55.979v-23.893h-49.835c-30.72 0-55.979-24.917-55.979-55.979v-705.877c0-30.72 24.917-55.979 55.979-55.979h491.861c30.72 0 55.637 25.259 55.637 55.979v23.893h49.835c30.72 0 55.979 24.917 55.979 55.979v2.048h67.243c30.72 0 55.979 24.917 55.979 55.979v486.741c0 0 0 0.683 0 1.024zM684.715 872.619l110.251-118.101 82.261-88.405h-168.96c-5.461 0.683-10.581 3.072-14.677 6.827l-2.731 2.731c-3.413 4.437-5.803 9.899-6.144 15.36v181.589zM643.755 1.536h-492.203c-13.995 0-24.917 11.264-24.917 25.259v706.56c0 13.995 11.264 25.259 24.917 25.259h49.835v-652.629c0-30.72 24.917-55.979 55.979-55.979h410.965l0.341-23.211c0-13.995-11.264-25.259-24.917-25.259zM774.144 106.325c0-13.995-11.264-25.259-24.917-25.259h-491.861c-13.995 0-24.917 11.264-24.917 25.259v706.901c0 13.995 11.264 25.259 24.917 25.259h67.243v-674.475c0-30.72 24.917-55.979 55.637-55.979h393.899v-1.707zM872.448 139.435h-492.203c-13.653 0-24.917 11.264-24.917 24.917v706.56c0 13.653 10.923 24.917 24.917 25.259h273.408v-203.093c0-32.085 25.941-57.685 57.685-57.685h186.027v-471.040c0-13.995-10.923-24.917-24.917-24.917zM484.352 814.592c-9.557 7.509-21.163 11.605-33.109 11.605l-0.341 0.341c-23.211 0-43.691-15.36-50.176-37.547-1.707-5.12-2.389-10.24-2.731-15.36 0-5.12 1.024-10.581 2.731-15.36 6.827-22.187 27.307-37.547 50.176-37.547 5.12 0 10.581 1.024 15.36 2.731 5.12 1.707 10.24 3.755 15.019 6.827 4.096 2.731 7.851 6.485 11.264 10.24 18.091 22.869 14.336 55.979-8.192 74.069zM471.040 764.075c-2.389-4.779-6.485-8.192-11.264-10.24-2.731-1.024-5.461-1.707-8.533-1.707-12.288 0-22.187 9.899-22.187 22.187s9.899 22.187 22.187 22.187c12.288 0 22.187-9.899 22.187-22.187 0-3.755-1.024-7.168-2.389-10.24zM450.901 657.92c-29.355 0-52.907-23.552-52.907-52.907s23.552-52.907 52.907-52.907c29.355 0 52.907 23.893 52.907 52.907s-23.893 52.907-52.907 52.907zM451.243 582.485c0 0-0.341 0 0 0l-0.341 0.341c-12.288 0-22.187 9.899-22.187 22.187s9.899 22.187 22.187 22.187c12.288 0 22.187-9.899 22.187-22.187s-9.557-22.528-21.845-22.528zM450.901 488.96c-29.355 0-52.907-23.893-52.907-52.907 0-29.355 23.552-52.907 52.907-52.907s52.907 23.893 52.907 52.907c0 29.355-23.893 52.907-52.907 52.907zM473.088 436.053c0-12.288-9.899-22.187-22.187-22.187s-22.187 9.899-22.187 22.187c0 12.288 9.899 22.187 22.187 22.187s22.187-9.899 22.187-22.187v0zM450.901 320c-29.355 0-52.907-23.893-52.907-52.907 0-29.355 23.552-52.907 52.907-52.907s52.907 23.552 52.907 52.907c0 29.355-23.893 52.907-52.907 52.907zM473.088 267.093c0-12.288-9.899-22.187-22.187-22.187s-22.187 9.899-22.187 22.187 9.899 22.187 22.187 22.187c12.288 0 22.187-9.899 22.187-22.187v0zM847.872 570.539h-212.992v-0.683c-1.024 0-2.389 0-3.413 0-5.12-1.365-9.216-5.12-10.923-10.24-0.341-1.365-0.683-3.072-0.683-4.437 0-0.341 0-0.341 0-0.683 0.341-8.192 7.168-15.019 15.36-14.677h212.651c8.533 0 15.36 6.827 15.36 15.36s-7.168 15.36-15.36 15.36zM847.189 457.899h-283.989c-8.533 0-15.36-6.827-15.36-15.36s6.827-15.36 15.36-15.36h283.989c8.533 0 15.36 6.827 15.36 15.36s-6.827 15.36-15.36 15.36zM847.189 345.6h-283.989c-8.533 0-15.36-6.827-15.36-15.36s6.827-15.36 15.36-15.36h283.989c8.533 0 15.36 6.827 15.36 15.36s-6.827 15.36-15.36 15.36zM847.189 233.984h-283.989c-8.533 0-15.36-6.827-15.36-15.36s6.827-15.36 15.36-15.36h283.989c8.533 0 15.36 6.827 15.36 15.36s-6.827 15.36-15.36 15.36z" />
<glyph unicode="&#xe918;" glyph-name="Client" d="M471.723-36.693h-423.595v144.725c0 31.403 13.653 61.44 37.547 82.261 95.915 78.848 196.267 134.827 235.179 155.307l17.408 9.216 7.168-18.432c4.096-10.581 40.96-96.597 71.68-151.552 9.557 21.163 24.235 46.080 44.032 59.051-35.84 29.013-88.064 73.045-111.616 101.035l-4.096 5.12v85.333c-11.947 22.187-19.797 43.008-23.211 62.123-14.336 9.557-26.624 32.427-37.888 70.656-11.264 40.96-10.923 67.584 1.365 83.627 2.389 3.413 5.461 6.144 8.875 8.192-7.851 38.912-7.851 69.632 0.341 97.963 11.264 45.739 36.523 78.165 55.979 97.621 13.312 13.312 30.72 30.037 50.517 42.325 15.019 9.557 30.72 19.797 50.176 25.6 13.995 4.096 30.037 8.533 46.421 8.875 41.984 3.413 80.555-4.779 115.029-24.917 29.013-16.725 45.739-36.523 53.248-47.104 10.24-2.731 26.624-10.24 40.96-28.672 26.965-34.475 34.475-91.136 22.187-168.277l-0.341-1.365c3.755-2.389 6.827-5.461 9.557-8.875 12.288-16.384 12.288-43.691 0.683-83.285-10.581-39.253-22.869-62.123-38.229-71.339-4.779-21.163-12.288-41.643-22.869-61.44v-85.333l-4.096-5.12c-23.552-27.989-76.117-72.363-111.957-101.376 20.139-12.629 34.816-37.888 44.373-58.709 30.72 54.955 67.584 141.312 72.021 151.552l7.509 18.432 17.408-9.557c88.405-48.128 169.643-101.717 234.496-155.307 24.235-19.797 37.888-49.835 37.888-82.603v-144.725l-504.149-1.024zM83.285-1.195l857.088-0.341v110.592c0 22.187-8.875 41.643-24.917 54.955-59.051 48.811-132.096 97.621-211.968 141.995-17.408-40.277-58.709-131.413-86.357-170.325l-21.163-29.696-10.24 35.157c-6.144 20.821-25.259 67.243-46.080 75.776-3.413 1.365-8.192 2.389-15.36-1.707l-12.288 18.432-13.312-19.797c-7.168 4.096-11.605 3.413-15.019 2.048-20.821-8.533-39.936-54.955-45.739-76.117l-9.899-35.499-21.504 30.037c-27.648 38.912-68.949 130.389-86.357 170.667-45.397-24.917-130.389-75.093-211.627-142.336-15.701-13.653-25.259-33.792-25.259-54.955v-108.885zM380.928 363.008c31.403-34.816 106.155-94.549 130.389-113.323 22.187 17.408 99.669 78.848 132.096 114.688v81.237l2.389 4.096c11.264 20.48 19.115 42.325 23.211 64.512l2.389 12.971 12.971 1.707c-0.341 0 9.899 5.461 21.845 50.517 12.288 41.643 5.461 51.883 5.12 52.224s-0.341 0.683-2.389 0.683h-22.528l9.216 37.205c13.312 82.944-1.024 121.856-15.019 139.947-11.947 15.36-25.259 17.067-25.6 17.067l-9.557 0.683-4.437 8.533c0 0-12.971 22.528-44.715 40.619-28.672 16.725-59.733 23.211-94.891 20.139h-1.365c-12.288 0-24.917-3.413-37.205-7.168-14.677-4.437-27.648-12.971-41.643-21.845-16.725-10.581-32.427-25.259-44.373-37.205-16.043-16.043-37.205-43.349-46.763-81.579-6.485-23.211-6.485-48.469 0-80.555l9.216-37.205h-22.528c-1.365 0-1.707-0.341-1.707-0.341s-7.509-9.216 4.437-52.565c11.947-40.619 21.504-49.493 23.211-50.859l12.629-1.707 1.707-13.653c2.048-18.773 9.899-39.936 22.869-63.488l2.389-4.096v-81.237z" />
<glyph unicode="&#xe919;" glyph-name="Package" d="M499.371 629.248l-3.755 2.048c-0.341 0-0.341 0.341-0.683 0.341-0.683 0.341-1.365 1.024-2.389 1.365-0.341 0.341-0.683 0.341-1.024 0.683-0.683 0.341-1.365 1.024-2.389 1.365-0.683 0.341-1.365 0.683-2.048 1.024 3.072-1.707-8.533 4.779-8.533 4.779l-0.341 0.341c-0.341 0.341-0.683 0.341-1.024 0.341 0 0-0.341 0-0.341 0-21.163 11.264-42.325 22.528-63.147 33.451-21.163 11.264-43.008 22.869-64.512 34.133-2.048 1.024-4.437 2.389-6.485 3.413s-4.096 2.389-6.485 3.413c-1.024 0.683-2.048 1.024-3.072 1.707s-2.048 1.024-3.072 1.707c-1.024 0.683-2.048 1.024-3.072 1.707s-2.048 1.024-3.072 1.707v0c-3.072 1.707-6.485 3.413-9.557 5.12-2.731 1.365-5.803 3.072-8.533 4.437l-1.365 0.683c-1.024 0.341-1.707 1.024-2.731 1.365-1.365 0.683-2.731 1.365-3.413 1.707l-10.581 6.485c-1.707 1.024-3.755-0.341-3.755-2.048v-224.597c0-1.024 0.683-1.707 1.365-2.048l4.096-2.048c4.096-2.048 7.851-4.096 11.605-6.144 2.048-1.365 4.437-2.389 6.485-3.755 43.349-22.869 86.699-46.080 128.683-68.608v0c16.725-8.875 34.133-18.091 50.859-27.307l10.24-5.461c1.707-1.024 3.413 0.341 3.413 2.048v224.597c0 0.683-0.683 1.707-1.365 2.048zM481.963 434.688c0-1.707-2.048-3.072-3.413-2.048-11.264 6.144-22.528 11.947-33.792 18.091v0c-41.984 22.187-85.333 45.397-128.683 68.608-2.048 1.024-4.096 2.389-6.144 3.413s-4.096 2.048-6.144 3.413c-0.683 0.341-1.365 1.365-1.365 2.048v185.003c1.024-0.341 1.707-1.024 2.731-1.365 3.072-1.707 6.144-3.413 9.557-5.12 1.024-0.683 2.048-1.024 3.072-1.707s2.048-1.024 3.072-1.707v0c1.024-0.683 2.048-1.024 3.072-1.707s2.048-1.024 3.072-1.707 4.437-2.389 6.485-3.413c2.048-1.024 4.096-2.389 6.485-3.413 21.504-11.264 43.349-22.869 64.512-34.133s43.008-22.869 64.512-34.133h0.341c0.341-0.341 0.683-0.341 1.365-0.341 0.341-0.341 0.683-0.341 1.365-0.683 0 0 0.341-0.341 0.341-0.341 0.683-0.341 1.365-0.683 1.707-1.024 0.683-0.341 1.707-1.024 2.389-1.365 1.365-0.683 2.389-1.365 3.755-2.048v0c0.341-0.341 1.024-0.683 1.707-1.024 0 0 0.341 0 0.341-0.341v-182.955zM658.773 700.587c-40.96-21.845-82.603-43.691-122.88-65.195v0c-0.683-0.341-1.707-0.683-2.389-1.365-2.048-1.024-4.437-2.048-6.485-3.755l-2.731-2.048c-0.683-0.341-1.024-1.024-1.024-2.048v-222.891c0-1.707 2.048-3.072 3.413-2.048l10.24 5.461c13.653 7.168 27.307 14.677 40.96 21.504 8.192 4.096 16.384 8.533 24.235 12.971 0.683 0.341 1.365 0.683 2.048 1.024 0 0 0.341 0 0.341 0.341h0.341c20.48 10.923 40.96 21.845 61.44 32.768s40.96 21.845 61.44 32.768c0.683 0.341 1.365 0.683 2.048 1.024 1.024 0.683 2.048 1.024 3.072 1.707 0.341 0.341 0.683 0.341 1.024 0.341h4.437c1.365 0 2.389 1.024 2.389 2.389v226.304c0 1.707-2.048 3.072-3.413 2.048l-10.24-5.461c-11.947-6.485-24.235-12.971-36.181-19.115-10.923-5.461-21.504-11.264-32.085-16.725zM718.165 710.485c1.707 0.683 3.413-0.341 3.413-2.048v-182.272c-0.341-0.341-0.683-0.341-1.024-0.683-0.683-0.341-1.365-0.683-2.048-1.024-20.48-10.923-40.96-21.845-61.44-32.768s-40.96-21.845-61.44-32.427c-0.341-0.341-1.024-0.341-1.365-0.683 0 0-0.341-0.341-0.341-0.341l-0.683-0.341c-8.192-4.437-16.384-8.533-24.576-12.971-7.851-4.096-15.701-8.192-23.552-12.288-1.707-0.683-3.413 0.341-3.413 2.048v180.907c0 1.024 0.683 1.707 1.365 2.048 0.341 0.341 1.024 0.341 1.365 0.683 40.277 21.504 81.92 43.691 122.88 65.195 10.581 5.461 21.163 11.264 31.744 16.725 6.485 3.413 12.629 6.827 19.115 10.24zM663.893 728.235l0.683 0.341c7.851 4.096 16.043 8.533 23.893 12.629s16.043 8.533 23.893 12.629l11.605 6.144c1.707 1.024 1.707 3.413 0 4.096l-11.605 6.144c-40.96 21.845-83.285 44.373-124.928 66.56-7.509 4.096-15.36 8.192-22.869 12.288-16.043 8.533-32.085 17.067-48.128 25.6l-3.413 1.707c-0.683 0.341-1.707 0.341-2.389 0l-151.211-80.213c-7.851-4.096-16.043-8.533-23.893-12.629s-16.043-8.533-23.893-12.629l-11.605-6.144c-1.707-1.024-1.707-3.413 0-4.096l11.605-6.144c20.821-10.923 41.301-22.187 62.123-33.109 20.821-11.264 41.984-22.187 62.805-33.451 11.947-6.144 23.552-12.629 35.499-18.773s23.552-12.629 35.499-18.773l3.413-1.707c0.683-0.341 1.707-0.341 2.389 0l22.528 11.947c42.325 22.187 85.675 45.056 128 67.584zM513.024 669.525c-0.683-0.341-1.707-0.341-2.389 0-9.899 5.461-19.797 10.581-29.696 16.043-11.947 6.144-23.552 12.629-35.499 18.773-20.821 11.264-41.984 22.187-62.805 33.451-13.995 7.509-28.331 15.019-42.325 22.528-1.707 1.024-1.707 3.413 0 4.096 1.365 0.683 2.731 1.365 4.096 2.389 7.851 4.096 16.043 8.533 23.893 12.629l77.824 41.301 64.512 34.475c0.683 0.341 1.707 0.341 2.389 0 14.336-7.509 28.331-15.019 42.667-22.528 7.509-4.096 15.36-8.192 22.869-12.288 35.157-18.773 70.656-37.547 105.131-55.979 1.707-1.024 1.707-3.413 0-4.096-1.365-0.683-2.731-1.365-4.096-2.389-7.851-4.096-16.043-8.533-23.893-12.629l-0.683-0.341c-41.984-22.187-85.333-45.397-128.341-68.267l-13.653-7.168zM255.317 250.368c-0.341 0-0.683 0-1.024 0.341-2.389 1.365-5.12 2.731-7.509 4.096-1.707 1.024-3.413 1.707-4.779 2.731-0.683 0.341-1.365 0.683-2.048 1.024s-1.024 0.683-1.707 1.024h-0.341c-0.683 0.341-1.365 0.683-2.048 1.024 0 0-0.341 0-0.341 0-16.725 8.875-33.109 17.749-49.835 26.283-24.917 13.312-50.859 26.965-76.459 40.619-4.779 3.072-9.899 5.461-14.677 7.851-1.707 0.683-3.072 1.707-4.779 2.389-3.413 1.707-7.168 3.755-10.581 5.803-2.731 1.365-5.461 3.072-8.192 4.437-0.341 0.341-1.024 0.683-2.048 1.024s-2.048 1.024-3.072 1.365c-2.389 1.365-5.461 2.731-6.827 3.755l-10.923 7.851c-1.707 1.024-3.755 0-3.755-2.048v-225.28c0-0.683 0.341-1.707 1.024-2.048l3.413-2.048c4.437-2.731 9.557-5.461 14.677-7.851 1.707-1.024 3.413-1.707 5.12-2.731 31.744-16.725 64.171-34.133 95.232-50.517l33.109-17.749c5.461-2.731 10.581-5.803 16.043-8.533 10.923-6.144 22.528-12.288 34.816-18.432l10.24-5.12c1.707-0.683 3.413 0.341 3.413 2.048v225.963l-6.144 2.731zM242.688 52.736c0-1.707-2.048-3.072-3.413-2.048-5.803 3.072-11.605 6.144-17.067 9.216-5.12 2.731-10.581 5.803-16.043 8.533l-33.109 17.749c-31.403 16.725-63.488 33.792-95.573 50.859-1.707 1.024-3.413 1.707-5.461 2.731-2.731 1.365-5.12 2.731-7.509 4.096-0.683 0.341-1.365 1.365-1.365 2.048v181.248c0 1.707 2.048 3.072 3.413 2.048 1.365-0.683 2.389-1.365 3.755-2.048 3.413-2.048 7.168-4.096 10.923-5.803 1.707-1.024 3.072-1.707 4.779-2.389 4.779-2.389 9.557-4.779 13.995-7.509l0.341-0.341c25.6-13.653 51.541-27.307 76.459-40.619 17.067-8.875 34.133-18.091 51.2-27.307l2.048-1.024h0.341c0 0 0.341 0 0.341 0 0.683-0.341 1.024-0.683 1.707-1.024 1.707-1.024 3.413-1.707 4.779-2.731 1.365-0.683 2.731-1.365 3.755-2.048 0.683-0.341 1.365-1.365 1.365-2.048v-181.589zM496.981 361.984l-10.923-7.851c-0.683-0.683-2.389-1.365-3.755-2.048-0.683-0.341-1.707-0.683-2.389-1.365v0c-7.168-4.096-14.677-7.851-21.845-11.605l-6.827-3.755c-1.024-0.683-2.048-1.024-3.072-1.707-1.024-0.341-1.707-1.024-2.731-1.365v0c-9.899-5.12-17.749-9.216-25.6-13.653-7.509-4.096-15.019-7.851-22.187-11.947-15.701-8.192-31.061-16.725-46.763-24.917-8.875-4.779-17.749-9.557-26.624-14.336s-18.091-9.557-26.965-14.336c-2.048-1.024-4.437-2.389-6.485-3.413-4.779-1.707-6.485-5.803-6.485-9.216v-219.136c0-1.707 2.048-3.072 3.413-2.048l10.24 5.461c29.355 15.36 58.709 31.061 87.040 46.080 13.653 7.168 26.965 14.336 40.619 21.845l17.749 9.557c17.408 9.216 35.499 18.773 53.248 28.331l3.755 2.048c0.683 0.341 1.365 1.365 1.365 2.048v225.621c-1.024 1.707-3.413 2.731-4.779 1.707zM481.963 145.92c0-1.024-0.341-1.707-1.365-2.048-15.701-8.533-31.403-16.725-47.104-24.917l-17.749-9.557c-13.653-7.168-27.307-14.336-40.619-21.845-22.528-12.288-46.080-24.576-69.632-36.864-1.707-0.683-3.413 0.341-3.413 2.048v180.907c0 1.024 0.341 1.707 1.365 2.048 0.683 0.341 1.024 0.683 1.707 1.024 8.875 4.779 18.091 9.557 26.965 14.336s17.749 9.557 26.624 14.336c15.701 8.192 31.061 16.725 46.763 24.917 7.509 4.096 15.019 7.851 22.187 11.947 7.509 4.096 15.701 8.192 25.259 13.312 1.024 0.683 2.048 1.024 3.072 1.707 1.024 0.341 1.707 1.024 2.731 1.365l7.168 3.755c4.096 2.048 7.851 4.096 11.947 6.485 1.707 0.683 3.413-0.341 3.413-2.048v-180.907zM291.157 275.627c1.707 0.683 3.072 1.707 4.779 2.389 43.349 23.211 86.699 46.080 128.683 68.608 3.413 1.707 6.485 3.413 9.899 5.12 12.629 6.827 25.941 13.653 38.229 20.48l11.264 6.485c1.707 1.024 1.707 3.413 0 4.096l-11.264 6.144c-27.989 15.019-56.32 30.037-83.627 44.715-13.653 7.168-27.307 14.336-40.619 21.845-8.875 4.779-17.749 9.557-26.624 13.995-8.875 4.779-17.749 9.216-26.624 13.995-1.707 1.024-3.755 2.048-5.461 3.072-4.096 2.048-8.192 4.437-12.629 6.485l-2.731 1.365c-0.683 0.341-1.365 0.341-2.048 0l-3.072-1.365c-4.779-2.048-9.557-4.779-13.995-7.168-2.048-1.024-3.755-2.048-5.803-3.072-21.504-11.264-42.667-22.869-64.171-34.133s-43.008-22.869-64.512-34.133c-7.851-4.096-16.043-8.533-23.893-12.629s-16.043-8.533-23.893-12.629l-11.605-6.144c-1.707-1.024-1.707-3.413 0-4.096l11.605-6.144c40.619-21.504 82.603-44.032 124.928-66.56l74.069-39.595c0.683-0.341 1.707-0.341 2.389 0l12.971 6.827c0.683 0.341 2.048 1.365 3.755 2.048zM277.504 289.963l-4.096-2.048c-0.683-0.341-1.707-0.341-2.389 0l-65.195 34.816c-35.499 18.773-70.656 37.547-105.131 55.979-1.707 1.024-1.707 3.413 0 4.096 1.365 0.683 2.731 1.365 4.096 2.389 7.851 4.096 16.043 8.533 23.893 12.629 21.504 11.605 43.008 22.869 64.512 34.133s42.667 22.869 64.171 34.133c2.048 1.024 4.096 2.389 6.144 3.413 2.389 1.365 5.12 2.731 7.509 4.096 0.683 0.341 1.365 0.341 2.048 0 2.048-1.024 4.437-2.389 6.827-3.413 1.707-1.024 3.755-2.048 5.461-3.072 8.875-4.779 17.749-9.557 26.624-13.995 8.875-4.779 17.749-9.216 26.283-13.995 13.653-7.168 27.307-14.336 40.96-21.845 21.163-11.264 42.667-22.869 64.512-34.475 1.707-1.024 1.707-3.413 0-4.096-6.144-3.413-12.288-6.485-18.432-9.557-3.413-1.707-6.485-3.413-9.899-5.12-41.984-22.187-85.333-45.397-128.683-68.608-1.707-1.024-3.072-1.707-4.779-2.731-1.365-1.024-2.731-2.048-4.437-2.731zM739.328 247.637l-4.096 2.048c-3.413 1.707-6.144 3.072-9.216 4.779-1.707 1.024-3.413 2.048-5.461 3.072-0.683 0.341-1.365 0.683-2.048 1.024s-1.024 0.683-1.707 1.024v0c-25.941 13.653-52.224 27.648-77.824 41.301-17.067 9.216-34.133 18.091-51.2 27.307-8.192 4.437-16.725 8.875-24.917 13.312-8.875 4.779-17.408 9.216-26.283 13.995l-10.24 5.461c-1.707 1.024-3.413-0.341-3.413-2.048v-224.256c0-1.024 0.341-1.707 1.365-2.048l3.755-2.048c3.413-1.707 7.168-3.755 10.581-5.461 2.731-1.707 5.803-3.072 8.875-4.779 31.744-16.725 63.829-34.133 95.232-50.517l33.451-17.749c5.803-3.072 11.264-6.144 17.067-9.216 10.923-5.803 21.845-11.947 33.792-17.749l10.24-5.12c1.707-0.683 3.413 0.341 3.413 2.048v223.573c0 0.683-0.683 1.365-1.365 2.048zM721.579 52.736c0-1.707-2.048-3.072-3.413-2.048-5.461 3.072-10.923 5.803-16.043 8.875-5.461 3.072-11.264 6.144-17.067 9.216l-33.451 17.749c-31.061 16.725-63.488 33.792-95.232 50.517-2.731 1.365-5.803 3.072-8.533 4.779-1.365 0.683-2.731 1.707-4.437 2.389-0.683 0.341-1.365 1.365-1.365 2.048v181.248c0 1.707 2.048 3.072 3.413 2.048 3.072-1.707 5.803-3.072 8.875-4.779 8.192-4.437 16.725-8.875 24.917-13.312 17.067-9.216 34.133-18.091 51.2-27.307 25.6-13.653 51.883-27.648 77.483-41.301 0.683-0.341 1.365-0.683 1.707-1.024 0.683-0.341 1.024-0.683 1.707-1.024 1.707-1.024 3.413-1.707 5.12-2.731 1.365-0.683 2.389-1.365 3.755-2.048 0.683-0.341 1.365-1.365 1.365-2.048v-181.248zM976.213 359.936l-10.24-5.461c-10.581-5.803-21.504-11.605-32.085-17.067-8.533-4.437-17.067-8.875-25.6-13.653l-1.365-0.683c-0.341 0-0.683-0.341-1.024-0.341-0.683-0.341-1.365-0.683-2.048-1.024-0.341-0.341-1.024-0.341-1.365-0.683-1.024-0.341-2.048-1.024-2.731-1.707-0.341 0-0.341-0.341-0.683-0.341 0 0 0 0-0.341 0s-0.341-0.341-0.683-0.341c-16.043-8.533-32.085-17.067-48.128-25.6-24.235-12.971-49.493-26.283-74.069-39.253-0.341 0-0.683-0.341-1.365-0.683l-0.683-0.341c-0.341-0.341-0.683-0.341-1.024-0.683 0 0 0 0-0.341 0s-0.341 0-0.683-0.341l-1.365-0.683c0 0-0.341 0-0.341-0.341 0 0-0.341 0-0.341 0h-5.12c-1.365 0-2.389-1.024-2.389-2.389v-226.645c0-1.707 2.048-3.072 3.413-2.048l10.24 5.461c29.355 15.36 58.368 31.061 86.699 46.080 13.653 7.168 27.307 14.677 40.96 21.845l17.749 9.216c17.408 9.216 35.84 19.115 53.248 28.331l3.755 2.048c0.683 0.341 1.365 1.365 1.365 2.048v223.573c0 1.707-2.048 2.731-3.413 1.707zM898.731 318.976c0 0 0 0.341 0 0l2.731-6.485-3.072 5.803c0 0.683 0 0.683 0.341 0.683zM960.853 145.92c0-1.024-0.341-1.707-1.365-2.048-15.701-8.533-31.744-16.725-47.104-24.917l-17.749-9.557c-13.653-7.168-27.307-14.677-40.96-21.845-22.528-11.947-45.739-24.576-69.291-36.864-1.707-0.683-3.413 0.341-3.413 2.048v180.907c0.341 0.683 0.683 1.365 1.365 2.048 0.341 0.341 0.683 0.341 1.024 0.683v0 0c0.341 0 0.683 0.341 1.024 0.683 24.576 12.971 49.493 26.283 73.728 39.253 16.043 8.533 32.085 17.067 48.128 25.6 0.683 0.341 1.365 0.683 2.048 1.024s1.707 0.683 2.389 1.365c0.341 0.341 1.024 0.341 1.365 0.683 0.683 0.341 1.365 0.683 2.048 1.024s1.365 0.683 2.048 1.024l1.365 0.683c8.192 4.437 16.384 8.533 24.576 12.971 4.779 2.731 9.899 5.12 15.019 7.851 1.707 0.683 3.413-0.341 3.413-2.048l0.341-180.565zM766.635 273.92l1.365 0.683c0.341 0.341 0.683 0.341 1.024 0.683v0c0.683 0.341 1.707 1.024 2.389 1.365 1.024 0.683 2.389 1.365 3.413 2.048l128.683 68.608c7.851 4.096 16.043 8.533 23.893 12.629s16.043 8.533 23.893 12.629l11.605 6.144c1.707 1.024 1.707 3.413 0 4.096l-11.605 6.144c-46.421 24.576-87.381 46.421-124.928 66.56-23.552 12.629-47.445 25.259-70.656 37.547l-3.413 1.707c-0.683 0.341-1.707 0.341-2.389 0l-22.528-11.947c-42.667-22.528-85.675-45.739-127.659-67.925l-1.024-0.683c-7.851-4.096-15.701-8.533-23.893-12.629-7.851-4.096-16.043-8.533-23.893-12.629l-11.947-6.144c-1.707-1.024-1.707-3.413 0-4.096l11.605-6.144c3.755-2.048 7.851-4.096 11.605-6.144s7.851-4.096 11.605-6.144c1.365-0.683 2.731-1.365 4.096-2.048s2.389-1.365 3.755-2.048v0c10.24-5.461 20.48-10.923 31.061-16.384 10.24-5.461 20.821-11.264 31.061-16.725 10.581-5.461 20.821-11.264 31.403-16.725 7.168-3.755 13.995-7.509 21.163-11.264 16.384-8.533 33.109-17.408 49.493-26.624l3.755-2.048c0.683-0.341 1.707-0.341 2.731 0l3.755 2.731c0.341 0.341 1.024 0.683 1.707 1.024 0.341 0.341 1.024 0.341 1.365 0.683 1.024 0.341 2.048 1.024 2.731 1.365 2.048 0.341 3.413 1.024 4.779 1.707zM759.467 291.328c-0.341 0-0.683-0.341-1.024-0.341-2.048-1.024-3.755-2.048-5.803-3.072-0.683 0-1.365 0-2.389 0-15.019 8.192-29.696 16.043-44.373 23.552-7.168 3.755-13.995 7.509-21.163 10.923-10.24 5.461-20.821 11.264-31.061 16.725-10.581 5.461-20.821 11.264-31.061 16.725-10.581 5.803-20.821 11.264-31.403 16.725-1.365 0.683-2.731 1.365-3.755 2.048-1.365 0.683-2.389 1.365-3.755 2.048s-2.389 1.365-3.755 2.048c0 2.048 0 2.389 0 4.096 9.216 5.12 18.773 9.899 27.989 15.019l1.024 0.683c41.643 22.187 84.992 45.397 127.659 67.925l13.653 7.168c0.683 0.341 1.707 0.341 2.389 0 21.504-11.605 43.691-23.211 65.195-34.816 32.085-17.408 66.901-35.84 105.131-55.979 0-2.048 0-2.389 0-4.096-9.557-5.12-18.773-9.899-28.331-15.019l-128.683-68.608c-1.365-0.683-2.389-1.365-3.755-2.048-0.683-0.341-1.707-1.024-2.731-1.707z" />
<glyph unicode="&#xe91a;" glyph-name="downArrow" d="M0 694.656h1024l-512-493.312z" />
<glyph unicode="&#xe91b;" glyph-name="SelectO2" d="M425.984 345.259l-86.016 86.016c-15.701 15.701-41.643 15.701-57.344 0s-15.701-41.643 0-57.344l114.688-114.688c7.851-7.851 18.432-11.947 28.672-11.947s20.821 4.096 28.672 11.947l286.72 286.72c15.701 15.701 15.701 41.643 0 57.344s-41.643 15.701-57.344 0l-258.048-258.048zM512-38.4c-268.629 0-486.4 217.771-486.4 486.4s217.771 486.4 486.4 486.4 486.4-217.771 486.4-486.4-217.771-486.4-486.4-486.4z" />
<glyph unicode="&#xe91c;" glyph-name="Trash" d="M931.84 781.824h-250.539v50.517c0 51.2-41.643 92.501-93.184 92.501h-151.893c-51.541 0-93.184-41.301-93.184-92.501v-50.176h-250.88c-22.187 0-39.936-17.749-39.936-39.595s17.749-39.936 39.936-39.936h81.237v-589.483c0-80.213 65.536-145.408 146.773-145.408h384c80.896 0 146.773 65.195 146.773 145.408v589.483h80.896c22.187 0 39.936 17.749 39.936 39.595s-17.749 39.595-39.936 39.595zM422.571 832.341c0 7.168 5.803 13.312 13.312 13.312h151.893c7.509 0 13.312-5.803 13.312-13.312v-50.176h-178.517v50.176zM769.365 111.787c0-36.523-29.696-66.219-66.56-66.219h-382.635c-36.864 0-66.56 29.696-66.56 66.219v590.848h517.12l-1.365-590.848zM612.011 142.165c22.187 0 39.936 17.749 39.936 39.595v395.264c0 21.845-17.749 39.595-39.936 39.595s-39.936-17.749-39.936-39.595v-395.264c0-21.845 17.749-39.595 39.936-39.595zM411.989 142.165c22.187 0 39.936 17.749 39.936 39.595v395.264c0 21.845-17.749 39.595-39.936 39.595s-39.936-17.749-39.936-39.595v-395.264c0-21.845 17.749-39.595 39.936-39.595z" />
<glyph unicode="&#xe91d;" glyph-name="Coverage" d="M512 538.453c-40.667-0.114-74.988-27.148-86.091-64.215l-0.164-0.638c-2.64-7.686-4.164-16.542-4.164-25.754s1.524-18.068 4.334-26.329l-0.17 0.576c11.888-37.007 46.002-63.32 86.263-63.32 49.518 0 89.739 39.805 90.411 89.164l0.001 0.063c-0.129 9.233-1.643 18.067-4.342 26.367l0.177-0.63c-11.305 37.654-45.618 64.633-86.245 64.717h-0.010zM407.927 623.548c6.506 4.131 10.761 11.297 10.761 19.457 0 12.687-10.285 22.972-22.972 22.972-4.129 0-8.003-1.089-11.352-2.996l0.113 0.059c-73.806-44.438-122.414-124.134-122.414-215.182 0-90.853 48.399-170.402 120.82-214.27l1.116-0.627c3.193-1.785 7.006-2.836 11.065-2.836 12.706 0 23.006 10.3 23.006 23.006 0 8.065-4.15 15.16-10.431 19.268l-0.088 0.054c-59.996 35.936-99.536 100.597-99.536 174.493 0 0.371 0.001 0.741 0.003 1.111v-0.057c0.254 74.222 39.841 139.142 98.995 175.033l0.913 0.514zM761.924 448c-0.326 90.921-48.821 170.442-121.284 214.41l-1.119 0.63c-3.352 2.021-7.399 3.216-11.725 3.216-12.691 0-22.979-10.288-22.979-22.979 0-8.365 4.47-15.686 11.151-19.705l0.104-0.058c60.067-36.397 99.66-101.3 99.942-175.473v-0.041c0.001-0.261 0.002-0.57 0.002-0.879 0-73.907-39.537-138.579-98.615-174.020l-0.92-0.512c-6.802-4.088-11.282-11.428-11.282-19.814 0-12.725 10.316-23.041 23.041-23.041 4.339 0 8.398 1.199 11.863 3.285l-0.104-0.058c73.397 44.698 121.713 124.203 121.924 215.009v0.031zM308.941 64.956c-138.204 74.25-230.582 217.8-230.582 382.927 0 165.304 92.576 308.985 228.71 382.027l2.316 1.135c7.313 3.95 12.198 11.559 12.198 20.309 0 12.706-10.3 23.006-23.006 23.006-0.005 0-0.009 0-0.014 0h0.001c-0.004 0-0.008 0-0.013 0-3.933 0-7.632-0.999-10.858-2.756l0.119 0.059c-153.065-82.090-255.4-240.989-255.4-423.789 0-182.611 102.122-341.369 252.372-422.281l2.55-1.255c3.061-1.61 6.688-2.554 10.536-2.554 12.706 0 23.006 10.3 23.006 23.006 0 8.645-4.768 16.176-11.818 20.107l-0.117 0.060zM358.093 168.789c-99.070 55.326-164.958 159.531-164.958 279.126 0 119.718 66.024 224.015 163.646 278.466l1.619 0.829c7.138 3.999 11.884 11.514 11.884 20.139 0 12.706-10.3 23.006-23.006 23.006-0.002 0-0.004 0-0.006 0v0c-0.002 0-0.005 0-0.008 0-4.058 0-7.867-1.063-11.165-2.926l0.113 0.059c-113.528-63.283-189.050-182.623-189.050-319.602 0-136.788 75.311-255.986 186.731-318.392l1.841-0.947c3.043-1.587 6.646-2.519 10.466-2.519 12.706 0 23.006 10.3 23.006 23.006 0 8.354-4.453 15.668-11.115 19.698l-0.103 0.058zM876.919 447.863c-0.195 136.979-75.732 256.27-187.385 318.675l-1.851 0.95c-3.088 1.647-6.753 2.615-10.644 2.615-12.687 0-22.972-10.285-22.972-22.972 0-8.477 4.591-15.881 11.422-19.862l0.109-0.059c99.25-55.286 165.279-159.594 165.279-279.323 0-119.565-65.848-223.751-163.259-278.27l-1.611-0.828c-7.133-3.995-11.875-11.504-11.875-20.122 0-12.694 10.291-22.985 22.985-22.985 4.077 0 7.906 1.062 11.226 2.923l-0.116-0.060c113.152 63.512 188.387 182.682 188.518 319.435v0.019zM736.188 871.663c-3.107 1.698-6.807 2.697-10.739 2.697-0.005 0-0.009 0-0.014 0h0.001c-12.697-0.012-22.985-10.308-22.985-23.006 0-8.75 4.885-16.359 12.077-20.249l0.122-0.060c138.417-74.205 230.963-217.88 230.963-383.17 0-165.127-92.364-308.682-228.246-381.818l-2.307-1.135c-6.879-4.063-11.421-11.439-11.421-19.876 0-12.706 10.3-23.006 23.006-23.006 3.646 0 7.093 0.848 10.156 2.357l-0.135-0.060c152.8 82.167 254.922 240.926 254.922 423.537 0 182.801-102.335 341.7-252.841 422.534l-2.559 1.256z" />
<glyph unicode="&#xe91e;" glyph-name="Package01" d="M507.699 849.374l-371.166-158.583c-3.739-1.758-6.281-5.493-6.281-9.822 0-0.027 0-0.054 0-0.081v0.004-465.203c0.102-4.235 2.615-7.86 6.215-9.563l0.066-0.028 371.302-158.583c1.267-0.565 2.745-0.895 4.301-0.895s3.034 0.329 4.37 0.922l-0.069-0.027 371.029 169.165c3.671 1.725 6.187 5.354 6.28 9.579v454.634c0 0.023 0 0.050 0 0.077 0 4.329-2.542 8.064-6.215 9.794l-0.066 0.028-371.166 158.583zM512 827.904l93.15-39.629-335.497-147.695-96.768 42.633 339.115 144.691zM763.29 720.521l92.809-39.629-344.098-146.705-80.555 35.362zM151.313 669.321l106.086-46.592v-206.165c0.607-5.664 5.361-10.037 11.136-10.037 1.484 0 2.901 0.289 4.197 0.813l-0.075-0.027 55.364 27.307 58.334-87.211c4.881-7.646 19.524-3.413 19.558 5.632v204.186l95.573-41.984v-441.617l-350.174 149.333zM872.687 665.020v-257.98q-71.1-32.597-142.234-65.399c-4.432-1.342-7.603-5.39-7.603-10.179 0-5.863 4.753-10.615 10.615-10.615 2.083 0 4.027 0.6 5.666 1.637l-0.044-0.026 133.598 61.44v-61.167l-99.806-44.373c-3.663-1.881-6.127-5.634-6.127-9.961 0-1.528 0.307-2.985 0.863-4.312l-0.027 0.074c1.788-3.656 5.481-6.129 9.75-6.129 1.507 0 2.943 0.308 4.247 0.865l-0.071-0.027 91.17 40.311v-66.082l-350.071-159.164v441.412z" />
<glyph unicode="&#xe91f;" glyph-name="New_Package" d="M1002.633 562.347l-135.646 55.706 131.243 44.373-356.523 151.211-130.492-50.347-128.922 50.347-350.583-149.367 119.091-49.766-129.434-55.228 148.582-60.382 0.171-281.225 337.135-135.305 333.278 130.458 11.23 5.222v283.682zM943.343 563.234l-303.002-118.647-98.782 39.595 289.826 118.579zM640.341 793.771l303.002-125.133-111.957-39.526-296.414 118.545zM804.966 614.844l-296.96-117.419-295.731 114.176 298.906 122.88zM93.662 668.638l289.792 118.545 111.991-39.526-309.589-118.545zM67.311 563.234l102.912 44.919 312.047-123.972-92.16-39.492zM192.444 233.882v256.887l183.33-70.997 6.315-2.219 6.827 2.219 106.359 42.257-6.417-353.417zM828.723 339.695l-127.829-44.373c-4.171-0.416-7.402-3.908-7.402-8.154 0-0.242 0.010-0.481 0.031-0.717l-0.002 0.031 0.512-3.413c0.836-3.745 4.132-6.503 8.071-6.503 0.562 0 1.111 0.056 1.641 0.163l-0.053-0.009 125.542 43.418 0.853-34.133-97.451-32.563c-3.403-0.617-5.95-3.557-5.95-7.092 0-0.376 0.029-0.745 0.084-1.106l-0.005 0.040 0.273-3.413c0.037-3.908 3.166-7.073 7.057-7.168h0.009l96.461 32.188 0.819-32.836-316.177-125.133 2.799 357.888 124.45-49.015 182.477 73.318z" />
<glyph unicode="&#xe920;" glyph-name="Folder" d="M874.837 26.795h-725.675c-48.811 0-88.405 39.595-88.405 88.405v0 665.6c0 48.811 39.595 88.405 88.405 88.405h259.413c38.229 0.341 73.387-21.163 90.453-55.296l1.365-4.779 32.085-111.275c1.365-5.461 6.485-9.216 11.947-8.875h331.093c48.811 0 88.064-39.595 88.064-88.405v-485.035c0-49.152-39.936-88.747-88.747-88.747v0zM149.163 809.131c-15.701 0-28.331-12.629-28.331-28.331v0-665.6c0-15.701 12.629-28.331 28.331-28.331 0 0 0 0 0 0h726.016c15.701 0 28.331 12.629 28.331 28.331 0 0 0 0 0 0v485.035c0 15.701-12.629 28.331-28.331 28.331v0h-331.093c-32.427 0-60.757 21.504-69.973 52.224l-30.037 108.203c-7.168 12.629-20.821 20.48-35.499 20.139h-259.413zM924.331 628.565h-378.197c-33.451 0-63.147 22.187-72.363 54.613l-36.181 125.952h337.237c34.816 0 66.56-19.456 82.603-50.176l66.901-130.389zM517.461 749.056l13.995-49.493c2.048-6.485 7.851-10.923 14.677-10.923h279.893l-22.187 42.667c-5.803 11.264-17.408 18.091-30.037 17.749h-256.341z" />
<glyph unicode="&#xe921;" glyph-name="html" d="M263.168 122.197c-0.071 0.001-0.155 0.001-0.239 0.001-12.725 0-23.040-10.315-23.040-23.040s10.315-23.040 23.040-23.040c12.725 0 23.040 10.315 23.040 23.040 0 0.012 0 0.023 0 0.035v-0.002c0.014 0.289 0.021 0.628 0.021 0.969 0 12.178-9.872 22.050-22.050 22.050-0.272 0-0.542-0.005-0.811-0.015l0.039 0.001zM849.92 696.422l-221.867 211.934c-16.364 16.107-38.835 26.052-63.628 26.052-0.431 0-0.861-0.003-1.29-0.009l0.065 0.001h-256c-88.747 0-162.133-74.684-162.133-165.035v-642.731c0-90.351 89.873-165.035 178.62-165.035h393.114c88.747 0 162.133 74.684 162.133 165.035v500.292c0.003 0.295 0.005 0.643 0.005 0.991 0 26.871-11.113 51.146-28.994 68.481l-0.025 0.024zM599.552 883.302l220.672-211.285h-166.059c-0.003 0-0.006 0-0.009 0-30.162 0-54.613 24.451-54.613 54.613 0 0.348 0.003 0.695 0.010 1.042l-0.001-0.052zM840.329 634.129v-499.302c0-65.024-38.741-140.459-136.226-138.411h-384.205c-97.519 10.001-136.226 75.469-136.226 140.493v617.813c-6.417 80.077 58.027 144.862 125.815 144.691h257.536v-162.406c0-54.17 44.373-99.328 97.621-99.328h175.684zM375.023 200.636c-17.442 0-27.614-9.353-35.533-19.593v61.44h-34.406v-166.093h34.406v67.823c0 16.384 8.363 24.815 21.504 24.815s20.821-8.431 20.821-24.815v-68.028h34.406v79.019c0 27.989-15.189 45.295-41.199 45.295zM486.127 229.513h-34.406v-31.164h-14.473v-29.594h14.473v-57.788c0-28.194 14.268-36.625 35.328-36.625 0.415-0.012 0.903-0.019 1.393-0.019 9.502 0 18.388 2.634 25.969 7.211l-0.226-0.126v27.75c-4.841-2.729-10.628-4.336-16.791-4.336-0.097 0-0.194 0-0.29 0.001h0.015c-7.68 0-11.093 3.891-11.093 11.844v51.951h28.535v29.594h-28.535zM644.335 181.282c-6.349 12.288-18.33 19.354-34.133 19.354-17.442 0-27.853-9.353-35.772-19.593v17.306h-34.441v-121.958h34.406v67.823c0 16.384 7.919 24.815 20.821 24.815s20.139-8.431 20.139-24.815v-68.028h34.406v68.028c0 16.384 7.919 24.815 20.821 24.815s20.139-8.431 20.139-24.815v-68.028h34.406v79.497c0 29.321-15.394 44.817-40.96 44.817-16.521 0-29.184-6.827-39.834-19.354zM791.108 242.483h-34.543v-166.093h34.406z" />
<glyph unicode="&#xe922;" glyph-name="Json" d="M849.92 696.422l-221.867 211.934c-16.364 16.107-38.835 26.052-63.628 26.052-0.431 0-0.861-0.003-1.29-0.009l0.065 0.001h-256c-88.747 0-162.133-74.684-162.133-165.035v-642.731c0-90.351 89.873-165.035 178.62-165.035h393.114c88.747 0 162.133 74.684 162.133 165.035v500.292c0.003 0.295 0.005 0.643 0.005 0.991 0 26.871-11.113 51.146-28.994 68.481l-0.025 0.024zM599.552 883.302l220.672-211.285h-166.059c-0.003 0-0.006 0-0.009 0-30.162 0-54.613 24.451-54.613 54.613 0 0.348 0.003 0.695 0.010 1.042l-0.001-0.052zM840.329 634.129v-499.302c0-65.024-38.741-140.459-136.26-138.411h-384.171c-97.519 10.001-136.226 75.469-136.226 140.493v617.813c-6.417 80.077 58.027 144.862 125.815 144.691h257.536v-162.406c0-54.17 44.373-99.328 97.621-99.328h175.684zM273.715 122.129c-0.071 0.001-0.155 0.001-0.239 0.001-12.725 0-23.040-10.315-23.040-23.040s10.315-23.040 23.040-23.040c12.725 0 23.040 10.315 23.040 23.040 0 0.012 0 0.023 0 0.035v-0.002c0.016 0.311 0.025 0.675 0.025 1.041 0 12.178-9.872 22.050-22.050 22.050-0.309 0-0.616-0.006-0.922-0.019l0.044 0.001zM328.841 214.869h36.386v30.72h-36.386zM329.728 84.241c0-10.24-4.949-14.097-12.22-14.097-2.56 0.001-5.061 0.25-7.482 0.723l0.246-0.040v-27.068c4.162-0.874 8.944-1.374 13.843-1.374 0.389 0 0.778 0.003 1.166 0.009l-0.059-0.001c25.327 0 38.912 12.288 38.912 39.117v119.91h-34.406zM448.785 153.19c-13.141 4.54-24.678 7.748-24.678 14.575v0.341c0 4.779 4.301 8.431 12.698 8.431s20.821-4.335 32.802-11.401l13.141 23.893c-12.735 8.622-28.377 13.863-45.227 14.13l-0.068 0.001c-24.439 0-44.373-13.892-44.373-38.707v-0.444c0-23.654 19.217-31.642 36.215-36.625 13.346-4.096 25.122-6.622 25.122-14.131v-0.444c0-5.461-4.54-9.114-14.507-9.114-11.298 0-25.122 5.018-38.229 14.575l-14.711-22.767c14.157-11.328 32.283-18.235 52.017-18.398h0.036c26.249 0 46.387 12.288 46.387 39.356v0.444c0.034 22.391-19.661 30.72-36.625 36.284zM570.027 203.708c-37.786 0-65.877-28.433-65.877-63.488v-0.444c0-35.055 27.853-63.044 65.434-63.044s65.843 28.433 65.843 63.488v0.58c0.068 34.918-27.853 62.908-65.399 62.908zM601.498 139.776c0-17.988-11.776-33.246-31.471-33.246-19.012 0-31.915 15.701-31.915 33.69v0.58c0 17.988 11.776 33.246 31.471 33.246 19.012 0 31.915-15.701 31.915-33.69zM660.309 201.421v-122.061h34.406v68.267c0 16.384 8.363 24.815 21.504 24.815s20.821-8.431 20.821-24.815v-68.267h34.372v79.053c0 27.989-15.155 45.295-41.199 45.295-17.408 0-27.614-9.318-35.533-19.558v17.271z" />
<glyph unicode="&#xe923;" glyph-name="Live" d="M963.072 798.071h-902.144c-18.578-0.154-33.583-15.232-33.621-33.822v-551.769c0-18.534 14.097-32.7 33.621-33.792h902.144c18.566 0.154 33.564 15.212 33.621 33.786v551.771c-0.038 18.595-15.043 33.672-33.607 33.826h-0.015zM955.494 233.165c0.003-0.113 0.005-0.246 0.005-0.379 0-8.219-6.663-14.882-14.882-14.882-0.11 0-0.219 0.001-0.328 0.004h-857.686c-0.093-0.002-0.202-0.003-0.312-0.003-8.219 0-14.882 6.663-14.882 14.882 0 0.133 0.002 0.266 0.005 0.398v-0.020 510.362c-0.001 0.072-0.002 0.157-0.002 0.243 0 8.2 6.648 14.848 14.848 14.848 0.121 0 0.241-0.001 0.361-0.004h857.684c8.336-0.188 15.040-6.916 15.189-15.243v-0.014zM766.805 136.124h-507.392c-14.097 0-23.893-4.369-23.893-19.627 0-13.107 9.762-18.569 22.767-18.569h508.587c0.275-0.015 0.597-0.023 0.922-0.023 10.27 0 18.596 8.322 18.603 18.591v0.001c0 0.041 0 0.089 0 0.137 0 10.764-8.726 19.49-19.49 19.49-0.036 0-0.072 0-0.108 0h0.006zM243.951 607.164h-43.486v-198.724h141.995v39.799h-98.509zM377.071 408.439h43.452v198.758h-43.315zM552.96 467.251l-51.678 139.947h-48.128l79.872-200.158h38.366l79.906 200.124h-46.865zM724.992 488.96h93.15v38.912h-93.15v40.448h105.813v38.878h-148.992v-198.724h150.426v38.912h-107.247z" />
<glyph unicode="&#xe924;" glyph-name="txt-04" d="M479.573 229.205h-34.475v-31.061h-14.336v-29.696h14.336v-57.685c0-28.331 14.336-36.523 35.499-36.523 11.605 0 19.797 2.731 27.307 7.168v27.648c-5.12-2.731-10.581-4.437-17.067-4.437-7.851 0-11.264 3.755-11.264 11.947v52.224h28.672v29.696h-28.672v30.72zM643.413 197.803h-36.181l-22.869-35.84-22.528 35.84h-36.864l40.96-60.075-42.667-61.781h36.181l24.576 37.888 24.576-37.888h36.523l-42.667 62.464 40.96 59.392zM671.403 229.205v-31.061h-14.336v-29.696h14.336v-57.685c0-28.331 14.336-36.523 35.499-36.523 11.605 0 19.797 2.731 27.307 7.168v27.648c-5.12-2.731-10.581-4.437-17.067-4.437-7.851 0-11.264 3.755-11.264 11.947v52.224h28.672v29.696h-28.672v31.061h-34.475zM394.923 122.027c-13.312 0-22.869-11.605-22.869-22.869 0-13.312 11.264-22.869 22.869-22.869 13.312 0 22.869 11.605 22.869 22.869-0.341 13.312-9.557 22.869-22.869 22.869zM877.568 696.491l-222.208 212.309c-17.067 17.408-40.96 25.941-64.853 25.941h-256.341c-88.747 0-162.133-74.752-162.133-165.205v-643.413c0-90.453 90.112-165.205 178.859-165.205h393.557c88.747 0 162.133 74.752 162.133 165.205v501.077c0 25.941-10.24 51.883-29.013 69.291zM627.029 883.541l220.843-211.285h-166.229c-30.72 0-54.613 24.576-54.613 55.637v155.648zM868.011 634.368v-499.712c0-65.195-38.912-140.629-136.192-138.581h-384.683c-97.621 9.899-136.192 75.435-136.192 140.629v618.496c-6.485 80.213 58.027 145.067 125.952 144.725h257.707v-162.816c0-54.272 44.373-99.328 97.621-99.328h175.787c0-1.707 0-3.413 0-3.413z" />
<glyph unicode="&#xe925;" glyph-name="xml" d="M304.913 122.197c-0.081 0.001-0.177 0.002-0.273 0.002-12.725 0-23.040-10.315-23.040-23.040s10.315-23.040 23.040-23.040c12.725 0 23.040 10.315 23.040 23.040 0 0.011 0 0.023 0 0.034v-0.002c0.014 0.289 0.021 0.628 0.021 0.968 0 12.178-9.872 22.050-22.050 22.050-0.26 0-0.518-0.004-0.775-0.013l0.037 0.001zM849.92 696.422l-221.867 211.934c-16.364 16.107-38.835 26.052-63.628 26.052-0.431 0-0.861-0.003-1.29-0.009l0.065 0.001h-256c-88.747 0-162.133-74.684-162.133-165.035v-642.731c0-90.351 89.873-165.035 178.62-165.035h393.114c88.747 0 162.133 74.684 162.133 165.035v500.292c0.003 0.295 0.005 0.643 0.005 0.991 0 26.871-11.113 51.146-28.994 68.481l-0.025 0.024zM599.552 883.302l220.672-211.285h-166.059c-0.003 0-0.006 0-0.009 0-30.162 0-54.613 24.451-54.613 54.613 0 0.348 0.003 0.695 0.010 1.042l-0.001-0.052zM840.329 634.129v-499.302c0-65.024-38.741-140.459-136.226-138.411h-384.205c-97.519 10.001-136.226 75.469-136.226 140.493v617.813c-6.417 80.077 58.027 144.862 125.815 144.691h257.536v-162.406c0-54.17 44.373-99.328 97.621-99.328h175.684zM457.83 198.212h-35.977l-22.869-35.738-22.63 35.738h-36.898l40.96-60.075-42.496-61.884h35.977l24.439 37.99 24.474-37.99h36.864l-42.769 62.362zM624.401 200.499c-16.521 0-29.184-6.827-39.834-19.354-6.315 12.288-18.33 19.354-34.133 19.354-17.442 0-27.853-9.353-35.772-19.593v17.306h-34.441v-121.958h34.406v67.959c0 16.384 7.919 24.815 20.821 24.815s20.173-8.431 20.173-24.815v-68.028h34.372v68.028c0 16.384 7.919 24.815 20.855 24.815s20.139-8.431 20.139-24.815v-68.028h34.406v79.497c0 29.321-15.394 44.817-40.994 44.817zM731.204 242.347h-34.372v-166.093h34.372z" />
<glyph unicode="&#xe926;" glyph-name="Feed" d="M962.901 798.208h-901.803c-18.432 0-33.451-15.36-33.792-33.792v-551.936c0-18.432 13.995-32.768 33.792-33.792h902.144c18.432 0 33.451 15.36 33.792 33.792v551.936c-0.341 18.432-15.36 33.451-34.133 33.792zM955.392 233.301c0.341-8.192-6.144-15.019-14.336-15.36-0.341 0-0.341 0-0.683 0h-857.771c-8.192-0.341-15.019 6.485-15.36 14.677 0 0.341 0 0.341 0 0.683v510.293c0 8.192 6.485 15.019 14.677 15.019 0.341 0 0.341 0 0.683 0h857.771c8.192-0.341 15.019-6.827 15.36-15.36l-0.341-509.952zM766.635 136.021h-507.221c-13.995 0-23.893-4.437-23.893-19.797 0-12.971 9.899-18.432 22.869-18.432h508.587c10.24-0.341 19.115 7.509 19.456 17.749 0 0.341 0 0.683 0 1.024 0 10.581-8.533 19.456-19.797 19.456 0.341 0 0.341 0 0 0zM348.843 483.499h-64.853v-85.333h-39.595v203.776h116.395v-31.061h-76.8v-57.003h64.512v-30.379zM485.376 487.936h-62.123v-59.392h74.752v-30.72h-114.005v203.776h113.664v-31.061h-74.411v-52.224h62.464v-30.379zM624.64 487.936h-62.464v-59.392h74.752v-30.72h-114.005v203.776h113.664v-31.061h-74.411v-52.224h62.464v-30.379zM662.187 398.165v203.776h62.805c21.163 0 38.912-7.851 52.907-23.893s20.821-36.181 20.821-61.099v-33.792c0-24.917-6.827-45.397-20.821-61.099s-31.403-23.893-52.907-23.893h-62.805zM701.44 570.88v-141.995h23.552c10.24 0 18.432 5.12 24.576 15.019 6.144 10.24 9.216 23.211 9.216 38.912v34.133c0 15.701-3.072 28.672-9.216 38.912s-14.336 15.019-24.576 15.019h-23.552z" />
<glyph unicode="&#xe927;" glyph-name="All" d="M479.232 201.557c-20.48 0-33.451-3.755-46.763-9.557l8.533-25.941c10.923 4.096 20.139 6.485 33.451 6.485 17.067 0 25.941-7.851 25.941-22.187v-2.048c-8.533 3.072-17.408 4.779-29.355 4.779-28.672 0-48.469-12.288-48.469-38.571v-0.341c0-23.893 18.773-36.864 41.301-36.864 16.725 0 27.989 6.144 36.523 15.36v-12.971h33.109v69.973c0 16.043-4.096 29.355-12.971 38.571-8.875 8.192-22.528 13.312-41.301 13.312zM500.736 122.027c0-12.288-10.923-21.163-26.965-21.163-10.923 0-18.773 5.461-18.773 14.677v0.341c0 10.923 8.875 16.725 23.552 16.725 8.192 0 16.043-1.707 21.845-4.437v-6.144zM564.224 79.701h34.133v164.181h-34.133v-164.181zM632.149 79.701h34.133v164.181h-34.133v-164.181zM382.293 125.781c-13.312 0-22.528-11.264-22.528-22.869 0-13.312 11.264-22.869 22.528-22.869 13.312 0 22.528 11.264 22.528 22.869 0 13.312-9.557 22.869-22.528 22.869zM846.507 693.76l-219.819 209.579c-17.067 17.067-40.619 25.941-64.171 25.941h-253.269c-87.723 0-160.427-73.728-160.427-163.157v-635.563c0-89.429 89.088-163.157 176.811-163.157h389.12c87.723 0 160.427 73.728 160.427 163.157v494.933c0.341 25.259-9.899 50.859-28.672 68.267zM598.699 878.421l218.453-208.896h-164.523c-30.379 0-53.931 24.235-53.931 54.955v153.941zM836.949 631.979v-493.909c0-64.171-38.229-138.923-134.827-136.875h-380.245c-96.597 10.24-134.827 74.752-134.827 139.264v610.987c-6.485 79.189 57.344 143.36 124.587 143.019h254.976v-160.768c0-53.589 43.691-97.963 96.597-97.963h174.080c-0.341-2.048-0.341-3.755-0.341-3.755z" />
<glyph unicode="&#xe928;" glyph-name="iconfinder_editor-attachment-paper-clip_763388" d="M341.333 767.147v-572.587c0 0 0-215.893 192-215.893s192 215.893 192 215.893v572.587c0 23.467-42.667 23.467-42.667 0v-572.587c0 0 15.515-173.227-149.333-173.227-149.333 0-149.333 173.227-149.333 173.227v572.587c0 0 0 107.52 106.667 107.52s106.667-107.52 106.667-107.52v-572.587c0 0 0-67.309-62.259-67.309s-65.741 67.309-65.741 67.309v544.427c0 23.467-42.667 23.467-42.667 0v-544.427c0 0-7.955-114.242 108.408-114.242 104.925 0 104.925 114.242 104.925 114.242v572.587c0 0 0 150.187-149.333 150.187s-149.333-150.187-149.333-150.187z" />
<glyph unicode="&#xe929;" glyph-name="star" d="M938.667 565.76l-306.773 26.453-119.893 282.453-119.893-282.88-306.773-26.027 232.96-201.813-69.973-299.947 263.68 159.147 263.68-159.147-69.547 299.947 232.533 201.813zM512 302.933l-160.427-96.853 42.667 182.613-141.653 122.88 186.88 16.213 72.533 171.947 72.96-172.373 186.88-16.213-141.653-122.88 42.667-182.613-160.853 97.28z" />
<glyph unicode="&#xe92a;" glyph-name="fillstar" d="M512 223.147l263.68-159.147-69.973 299.947 232.96 201.813-306.773 26.027-119.893 282.88-119.893-282.88-306.773-26.027 232.96-201.813-69.973-299.947 263.68 159.147z" />
<glyph unicode="&#xe92b;" glyph-name="link" d="M166.4 448c0 72.96 59.307 132.267 132.267 132.267h170.667v81.067h-170.667c-117.76 0-213.333-95.573-213.333-213.333s95.573-213.333 213.333-213.333h170.667v81.067h-170.667c-72.96 0-132.267 59.307-132.267 132.267zM341.333 405.333h341.333v85.333h-341.333v-85.333zM725.333 661.333h-170.667v-81.067h170.667c72.96 0 132.267-59.307 132.267-132.267s-59.307-132.267-132.267-132.267h-170.667v-81.067h170.667c117.76 0 213.333 95.573 213.333 213.333s-95.573 213.333-213.333 213.333z" />
</font>
</defs>
</svg>
