<?xml version="1.0" encoding="utf-8"?>
<!-- Generator: Adobe Illustrator 22.1.0, SVG Export Plug-In . SVG Version: 6.00 Build 0)  -->
<svg version="1.1" id="Layer_1" xmlns="http://www.w3.org/2000/svg" xmlns:xlink="http://www.w3.org/1999/xlink" x="0px" y="0px"
	 viewBox="0 0 300 300" style="enable-background:new 0 0 300 300;" xml:space="preserve">
<path d="M150.2,9c-9.3,0.1-16.8,7.7-16.7,17.1c0,0.1,0,0.1,0,0.2v106.9H26.5c-0.6,0-1.2,0-1.8,0c-9.3,0.5-16.5,8.4-16,17.8
	c0.5,9.3,8.4,16.5,17.8,16l0,0h106.9v106.9c-0.1,9.3,7.3,17,16.6,17.1c9.3,0.1,17-7.3,17.1-16.6c0-0.2,0-0.3,0-0.5V166.9h106.9
	c9.3,0.1,17-7.3,17.1-16.6c0.1-9.3-7.3-17-16.6-17.1c-0.2,0-0.3,0-0.5,0H167.2V26.2c0.2-9.3-7.2-17-16.5-17.2
	C150.5,9,150.3,9,150.2,9z"/>
</svg>
