<?xml version="1.0" encoding="utf-8"?>
<!-- Generator: Adobe Illustrator 22.1.0, SVG Export Plug-In . SVG Version: 6.00 Build 0)  -->
<svg version="1.1" id="Layer_1" xmlns="http://www.w3.org/2000/svg" xmlns:xlink="http://www.w3.org/1999/xlink" x="0px" y="0px"
	 viewBox="0 0 300 300" style="enable-background:new 0 0 300 300;" xml:space="preserve">
<g>
	<g>
		<path d="M244.3,55.7c-52.2-52.2-136.4-52.2-188.6,0c-52.2,52.2-52.2,136.4,0,188.6c52.2,52.2,136.4,52.2,188.6,0
			C296.4,192.1,296.4,107.9,244.3,55.7z M236.3,236.3c-47.5,47.5-125,47.5-172.5,0c-47.5-47.5-47.5-125,0-172.5
			c47.5-47.5,125-47.5,172.5,0C283.8,111.3,283.8,188.7,236.3,236.3z M200.1,145.6l-43.1-0.2v-42.9c0-3.2-2.4-5.6-5.6-5.6
			s-5.6,2.4-5.6,5.6v42.9h-42.9c-3.2,0-5.6,2.4-5.6,5.6c0,1.6,0.6,3,1.6,4c1,1,2.4,1.6,4,1.6h42.9v42.9c-0.2,3,2.2,5.8,5.2,6
			c3,0.2,5.8-2.2,6-5.2c0-0.4,0.2-0.6,0-0.8l0.2-42.7h42.9c3-0.2,5.4-2.6,5.6-5.6C205.8,148,203.4,145.6,200.1,145.6z"/>
	</g>
</g>
</svg>
