<?xml version="1.0" encoding="utf-8"?>
<!-- Generator: Adobe Illustrator 22.1.0, SVG Export Plug-In . SVG Version: 6.00 Build 0)  -->
<svg version="1.1" id="Layer_1" xmlns="http://www.w3.org/2000/svg" xmlns:xlink="http://www.w3.org/1999/xlink" x="0px" y="0px"
	 viewBox="0 0 300 300" style="enable-background:new 0 0 300 300;" xml:space="preserve">
<g>
	<g>
		<path d="M140.4,222.2c-6,0-9.8,1.1-13.7,2.8l2.5,7.6c3.2-1.2,5.9-1.9,9.8-1.9c5,0,7.6,2.3,7.6,6.5v0.6c-2.5-0.9-5.1-1.4-8.6-1.4
			c-8.4,0-14.2,3.6-14.2,11.3v0.1c0,7,5.5,10.8,12.1,10.8c4.9,0,8.2-1.8,10.7-4.5v3.8h9.7v-20.5c0-4.7-1.2-8.6-3.8-11.3
			C149.9,223.7,145.9,222.2,140.4,222.2z M146.7,245.5c0,3.6-3.2,6.2-7.9,6.2c-3.2,0-5.5-1.6-5.5-4.3v-0.1c0-3.2,2.6-4.9,6.9-4.9
			c2.4,0,4.7,0.5,6.4,1.3V245.5z M165.3,257.9h10v-48.1h-10V257.9z M185.2,257.9h10v-48.1h-10V257.9z M112,244.4
			c-3.9,0-6.6,3.3-6.6,6.7c0,3.9,3.3,6.7,6.6,6.7c3.9,0,6.6-3.3,6.6-6.7C118.6,247.2,115.8,244.4,112,244.4z M248,78l-64.4-61.4
			c-5-5-11.9-7.6-18.8-7.6H90.6c-25.7,0-47,21.6-47,47.8v186.2c0,26.2,26.1,47.8,51.8,47.8h114c25.7,0,47-21.6,47-47.8v-145
			C256.5,90.6,253.5,83.1,248,78z M175.4,23.9l64,61.2h-48.2c-8.9,0-15.8-7.1-15.8-16.1V23.9z M245.2,96.1v144.7
			c0,18.8-11.2,40.7-39.5,40.1H94.3C66,277.9,54.8,259,54.8,240.1V61.1c-1.9-23.2,16.8-42,36.5-41.9H166v47.1
			C166,82,178.8,95,194.3,95h51C245.2,95.6,245.2,96.1,245.2,96.1z"/>
	</g>
</g>
</svg>
