<?xml version="1.0" encoding="utf-8"?>
<!-- Generator: Adobe Illustrator 22.1.0, SVG Export Plug-In . SVG Version: 6.00 Build 0)  -->
<svg version="1.1" id="Layer_1" xmlns="http://www.w3.org/2000/svg" xmlns:xlink="http://www.w3.org/1999/xlink" x="0px" y="0px"
	 viewBox="0 0 300 300" style="enable-background:new 0 0 300 300;" xml:space="preserve">
<style type="text/css">
	.st0{fill:none;stroke:#000000;stroke-width:20;stroke-miterlimit:10;}
	.st1{stroke:#000000;stroke-miterlimit:10;}
</style>
<path d="M138.2,292H14.1v-42.4c0-9.2,4-18,11-24.1C53.2,202.4,82.6,186,94,180l5.1-2.7l2.1,5.4c1.2,3.1,12,28.3,21,44.4
	c2.8-6.2,7.1-13.5,12.9-17.3c-10.5-8.5-25.8-21.4-32.7-29.6l-1.2-1.5v-25c-3.5-6.5-5.8-12.6-6.8-18.2c-4.2-2.8-7.8-9.5-11.1-20.7
	c-3.3-12-3.2-19.8,0.4-24.5c0.7-1,1.6-1.8,2.6-2.4C84,76.5,84,67.5,86.4,59.2c3.3-13.4,10.7-22.9,16.4-28.6c3.9-3.9,9-8.8,14.8-12.4
	c4.4-2.8,9-5.8,14.7-7.5c4.1-1.2,8.8-2.5,13.6-2.6c12.3-1,23.6,1.4,33.7,7.3c8.5,4.9,13.4,10.7,15.6,13.8c3,0.8,7.8,3,12,8.4
	c7.9,10.1,10.1,26.7,6.5,49.3l-0.1,0.4c1.1,0.7,2,1.6,2.8,2.6c3.6,4.8,3.6,12.8,0.2,24.4c-3.1,11.5-6.7,18.2-11.2,20.9
	c-1.4,6.2-3.6,12.2-6.7,18v25l-1.2,1.5c-6.9,8.2-22.3,21.2-32.8,29.7c5.9,3.7,10.2,11.1,13,17.2c9-16.1,19.8-41.4,21.1-44.4l2.2-5.4
	l5.1,2.8c25.9,14.1,49.7,29.8,68.7,45.5c7.1,5.8,11.1,14.6,11.1,24.2v42.4L138.3,292L138.2,292z M24.4,281.6h103.4l0.1,0.1h147.6
	l0-32.4c0-6.5-2.6-12.2-7.3-16.1c-17.3-14.3-38.7-28.6-62.1-41.6c-5.1,11.8-17.2,38.5-25.3,49.9l-6.2,8.7l-3-10.3
	c-1.8-6.1-7.4-19.7-13.5-22.2c-1-0.4-2.4-0.7-4.5,0.5l-3.6-5.4l-3.9,5.8c-2.1-1.2-3.4-1-4.4-0.6c-6.1,2.5-11.7,16.1-13.4,22.3
	l-2.9,10.4l-6.3-8.8c-8.1-11.4-20.2-38.2-25.3-50c-13.3,7.3-38.2,22-62,41.7c-4.6,4-7.4,9.9-7.4,16.1V281.6z M111.6,174.9
	c9.2,10.2,31.1,27.7,38.2,33.2c6.5-5.1,29.2-23.1,38.7-33.6v-23.8l0.7-1.2c3.3-6,5.6-12.4,6.8-18.9l0.7-3.8l3.8-0.5l0,0
	c-0.1,0,2.9-1.6,6.4-14.8c3.6-12.2,1.6-15.2,1.5-15.3c-0.1-0.1-0.1-0.2-0.7-0.2h-6.6l2.7-10.9c3.9-24.3-0.3-35.7-4.4-41
	c-3.5-4.5-7.4-5-7.5-5l-2.8-0.2l-1.3-2.5c0,0-3.8-6.6-13.1-11.9c-8.4-4.9-17.5-6.8-27.8-5.9l-0.4,0c-3.6,0-7.3,1-10.9,2.1
	c-4.3,1.3-8.1,3.8-12.2,6.4c-4.9,3.1-9.5,7.4-13,10.9c-4.7,4.7-10.9,12.7-13.7,23.9c-1.9,6.8-1.9,14.2,0,23.6l2.7,10.9h-6.6
	c-0.4,0-0.5,0.1-0.5,0.1c0,0-2.2,2.7,1.3,15.4c3.5,11.9,6.3,14.5,6.8,14.9l3.7,0.5l0.5,4c0.6,5.5,2.9,11.7,6.7,18.6l0.7,1.2V174.9z"
	/>
</svg>
