<?xml version="1.0" encoding="utf-8"?>
<!-- Generator: Adobe Illustrator 22.1.0, SVG Export Plug-In . SVG Version: 6.00 Build 0)  -->
<svg version="1.1" id="Layer_1" xmlns="http://www.w3.org/2000/svg" xmlns:xlink="http://www.w3.org/1999/xlink" x="0px" y="0px"
	 viewBox="0 0 300 300" style="enable-background:new 0 0 300 300;" xml:space="preserve">
<g>
	<g>
		<path d="M150,16.7C76.2,16.7,16.7,76.2,16.7,150c0,73.8,59.6,133.3,133.3,133.3c73.8,0,133.3-59.6,133.3-133.3
			C283.3,76.2,223.8,16.7,150,16.7z M150,272c-67.2,0-122-54.8-122-122C28,82.8,82.8,28,150,28c67.2,0,122,54.8,122,122
			S217.2,272,150,272z M188.6,113.4c-2.3-2.3-5.7-2.3-7.9,0l-30.4,30.4l-30.4-30.4c-2.3-2.3-5.7-2.3-7.9,0c-1.1,1.1-1.7,2.6-1.7,4
			c0,1.4,0.6,2.8,1.7,4l30.4,30.4L112,182.1c-2.3,2-2.6,5.7-0.6,7.9s5.7,2.6,7.9,0.6c0.3-0.3,0.6-0.3,0.6-0.6l30.4-30.1l30.4,30.4
			c2.3,2,5.7,2,7.9,0c2.3-2.3,2.3-5.7,0-7.9l-30.4-30.6l30.4-30.4C190.9,119.1,190.9,115.7,188.6,113.4z"/>
	</g>
</g>
</svg>
