<svg id="Layer_1" data-name="Layer 1" xmlns="http://www.w3.org/2000/svg" viewBox="0 0 300 300"><title>Untitled-1</title><path d="M150,123.5a26.4,26.4,0,0,0-25.27,19,23.94,23.94,0,0,0,0,15.09A26.49,26.49,0,0,0,176.49,150a26.1,26.1,0,0,0-1.22-7.54A26.39,26.39,0,0,0,150,123.5ZM119.51,98.57A6.73,6.73,0,0,0,112.64,87a73.34,73.34,0,0,0-.14,126,6.74,6.74,0,0,0,6.9-11.57A59.39,59.39,0,0,1,90.24,150,60.17,60.17,0,0,1,119.51,98.57ZM223.22,150a73.72,73.72,0,0,0-35.86-63,6.73,6.73,0,0,0-6.87,11.58A60.18,60.18,0,0,1,209.77,150a59.41,59.41,0,0,1-29.16,51.39A6.73,6.73,0,0,0,187.5,213,73.71,73.71,0,0,0,223.22,150ZM90.51,262.22a126.93,126.93,0,0,1,.13-224.44,6.74,6.74,0,0,0-3.17-12.69,6.66,6.66,0,0,0-3.15.79,140.42,140.42,0,0,0-.14,248.24,6.74,6.74,0,0,0,6.33-11.9Zm14.4-30.42A93.35,93.35,0,0,1,105,68.2a6.74,6.74,0,0,0-3.26-12.64,6.66,6.66,0,0,0-3.24.84,106.84,106.84,0,0,0-.14,187.19,6.74,6.74,0,0,0,6.52-11.79Zm152-81.76A107.05,107.05,0,0,0,201.47,56.4,6.73,6.73,0,0,0,195,68.2a93.36,93.36,0,0,1,.12,163.6,6.73,6.73,0,0,0,6.51,11.79A107.08,107.08,0,0,0,256.86,150ZM215.68,25.88a6.66,6.66,0,0,0-3.15-.79,6.74,6.74,0,0,0-3.16,12.69,126.95,126.95,0,0,1,.12,224.45,6.74,6.74,0,0,0,6.33,11.89,140.42,140.42,0,0,0-.14-248.24Z"/></svg>