<?xml version="1.0" encoding="utf-8"?>
<!-- Generator: Adobe Illustrator 22.1.0, SVG Export Plug-In . SVG Version: 6.00 Build 0)  -->
<svg version="1.1" id="Layer_1" xmlns="http://www.w3.org/2000/svg" xmlns:xlink="http://www.w3.org/1999/xlink" x="0px" y="0px"
	 viewBox="0 0 300 300" style="enable-background:new 0 0 300 300;" xml:space="preserve">
<path d="M233.7,32.4c-4.7-4.7-11.1-7.4-17.8-7.4c-6.7,0-13.1,2.7-17.8,7.4L53,178.3c-3,3-5,6.8-6.4,10.8l-20.5,70.7
	c-1.3,4.1,0,8.5,3,11.8c2.4,2.4,5.4,3.4,8.4,3.4c1,0,2.4,0,3.4-0.3l70.3-20.6c4-1.4,7.7-3.4,10.8-6.4l145-145.9
	c4.7-4.7,7.4-11.2,7.4-17.9c0-6.8-2.7-13.2-7.4-17.9L233.7,32.4z M54.7,245.9l10.8-37.2l26.2,26.4L54.7,245.9z M112.9,223.3
	l-35.7-35.9l97.6-98.1l35.7,35.9L112.9,223.3z M250.5,85.2l-23.2,23l-35.7-35.9l22.9-23c0.3-0.3,1-0.3,1.3-0.3c0.3,0,0.7,0,1.3,0.3
	l33.3,33.5c0,0.3,0.3,0.7,0.3,1C250.9,84.2,250.9,84.5,250.5,85.2z"/>
</svg>
