<?xml version="1.0" encoding="utf-8"?>
<!-- Generator: Adobe Illustrator 22.1.0, SVG Export Plug-In . SVG Version: 6.00 Build 0)  -->
<svg version="1.1" id="Layer_1" xmlns="http://www.w3.org/2000/svg" xmlns:xlink="http://www.w3.org/1999/xlink" x="0px" y="0px"
	 viewBox="0 0 300 300" style="enable-background:new 0 0 300 300;" xml:space="preserve">
<path d="M291.9,149.9c0-2.1-1.3-4.9-2.6-6.3l-73-77.7c-3.4-3.5-8.9-3.9-12.9-0.4c-3.6,3.2-3.6,9.5-0.4,12.9l58.6,62.3H18.2
	c-5,0-9.1,4.1-9.1,9.1c0,5.1,4.1,9.1,9.1,9.1h243.5L203,221.4c-3.3,3.5-3,9.6,0.4,12.9c3.6,3.5,9.5,3.2,12.9-0.4l73-77.7
	C291.4,154.1,291.8,152.1,291.9,149.9z"/>
</svg>
