<?xml version="1.0" encoding="utf-8"?>
<!-- Generator: Adobe Illustrator 23.0.6, SVG Export Plug-In . SVG Version: 6.00 Build 0)  -->
<svg version="1.1" id="Layer_1" xmlns="http://www.w3.org/2000/svg" xmlns:xlink="http://www.w3.org/1999/xlink" x="0px" y="0px"
	 viewBox="0 0 300 300" style="enable-background:new 0 0 300 300;" xml:space="preserve">
<title>Untitled-1</title>
<path d="M282.1,47.4H17.9c-5.4,0-9.8,4.5-9.9,9.9V219c0,5.4,4.1,9.6,9.9,9.9h264.3c5.4,0,9.8-4.5,9.9-9.9V57.3
	C292,51.9,287.6,47.5,282.1,47.4z M279.9,212.9c0.1,2.4-1.8,4.4-4.2,4.5c-0.1,0-0.1,0-0.2,0H24.2c-2.4,0.1-4.4-1.9-4.5-4.3
	c0-0.1,0-0.1,0-0.2V63.4c0-2.4,1.9-4.4,4.3-4.4c0.1,0,0.1,0,0.2,0h251.3c2.4,0.1,4.4,2,4.5,4.5L279.9,212.9z M224.6,241.4H76
	c-4.1,0-7,1.3-7,5.8c0,3.8,2.9,5.4,6.7,5.4h149c3,0.1,5.6-2.2,5.7-5.2c0-0.1,0-0.2,0-0.3C230.4,244,227.9,241.4,224.6,241.4
	C224.7,241.4,224.7,241.4,224.6,241.4z M102.2,139.6H83.2v25H71.6v-59.7h34.1v9.1H83.2v16.7h18.9V139.6z M142.2,138.3H124v17.4h21.9
	v9h-33.4v-59.7h33.3v9.1H124v15.3h18.3V138.3z M183,138.3h-18.3v17.4h21.9v9h-33.4v-59.7h33.3v9.1h-21.8v15.3H183V138.3z M194,164.6
	v-59.7h18.4c6.2,0,11.4,2.3,15.5,7c4.1,4.7,6.1,10.6,6.1,17.9v9.9c0,7.3-2,13.3-6.1,17.9s-9.2,7-15.5,7H194z M205.5,114v41.6h6.9
	c3,0,5.4-1.5,7.2-4.4c1.8-3,2.7-6.8,2.7-11.4v-10c0-4.6-0.9-8.4-2.7-11.4c-1.8-3-4.2-4.4-7.2-4.4H205.5z"/>
</svg>
