<?xml version="1.0" encoding="utf-8"?>
<!-- Generator: Adobe Illustrator 22.1.0, SVG Export Plug-In . SVG Version: 6.00 Build 0)  -->
<svg version="1.1" id="Layer_1" xmlns="http://www.w3.org/2000/svg" xmlns:xlink="http://www.w3.org/1999/xlink" x="0px" y="0px"
	 viewBox="0 0 300 300" style="enable-background:new 0 0 300 300;" xml:space="preserve">
<style type="text/css">
	.st0{fill:#010101;}
</style>
<g>
	<path class="st0" d="M256.3,273.4H43.7c-14.3,0-25.9-11.6-25.9-25.9l0,0v-195c0-14.3,11.6-25.9,25.9-25.9h76
		c11.2-0.1,21.5,6.2,26.5,16.2l0.4,1.4l9.4,32.6c0.4,1.6,1.9,2.7,3.5,2.6h97c14.3,0,25.8,11.6,25.8,25.9v142.1
		C282.3,261.8,270.6,273.4,256.3,273.4L256.3,273.4z M43.7,44.2c-4.6,0-8.3,3.7-8.3,8.3l0,0v195c0,4.6,3.7,8.3,8.3,8.3c0,0,0,0,0,0
		h212.7c4.6,0,8.3-3.7,8.3-8.3c0,0,0,0,0,0V105.4c0-4.6-3.7-8.3-8.3-8.3l0,0h-97c-9.5,0-17.8-6.3-20.5-15.3l-8.8-31.7
		c-2.1-3.7-6.1-6-10.4-5.9H43.7z"/>
	<path class="st0" d="M270.8,97.1H160c-9.8,0-18.5-6.5-21.2-16l-10.6-36.9H227c10.2,0,19.5,5.7,24.2,14.7L270.8,97.1z M151.6,61.8
		l4.1,14.5c0.6,1.9,2.3,3.2,4.3,3.2H242L235.5,67c-1.7-3.3-5.1-5.3-8.8-5.2H151.6z"/>
</g>
</svg>
