<svg id="Layer_1" data-name="Layer 1" xmlns="http://www.w3.org/2000/svg" viewBox="0 0 300 300"><title>Untitled-1</title><path d="M77.1,245.45a6.75,6.75,0,1,0,6.68,6.74A6.46,6.46,0,0,0,77.1,245.45ZM249,77.22,184,15.13A26.58,26.58,0,0,0,165,7.5H90c-26,0-47.5,21.88-47.5,48.35v188.3c0,26.47,26.33,48.35,52.33,48.35H210c26,0,47.5-21.88,47.5-48.35V97.58A27.94,27.94,0,0,0,249,77.22ZM175.65,22.47l64.65,61.9H191.65a16,16,0,0,1-16-16.29Zm70.54,73V241.75c0,19.05-11.35,41.15-39.91,40.55H93.72c-28.57-2.93-39.91-22.11-39.91-41.16v-181c-1.88-23.46,17-42.44,36.86-42.39h75.45V65.33c0,15.87,13,29.1,28.6,29.1h51.47Zm-136.32,127c-5.11,0-8.09,2.74-10.41,5.74v-18H89.38v48.66H99.46V239c0-4.8,2.45-7.27,6.3-7.27s6.1,2.47,6.1,7.27v19.93h10.08V235.78C121.94,227.58,117.49,222.51,109.87,222.51Zm32.55-8.46H132.34v9.13H128.1v8.67h4.24v16.93c0,8.26,4.18,10.73,10.35,10.73a14.74,14.74,0,0,0,7.95-2.07v-8.13a10.16,10.16,0,0,1-5,1.27c-2.25,0-3.25-1.14-3.25-3.47V231.85h8.36v-8.67h-8.36Zm46.35,14.13c-1.86-3.6-5.37-5.67-10-5.67-5.11,0-8.16,2.74-10.48,5.74v-5.07H158.2v35.73h10.08V239c0-4.8,2.32-7.27,6.1-7.27s5.9,2.47,5.9,7.27v19.93h10.08V239c0-4.8,2.32-7.27,6.1-7.27s5.9,2.47,5.9,7.27v19.93h10.08V235.64c0-8.59-4.51-13.13-12-13.13C195.6,222.51,191.89,224.51,188.77,228.18Zm43-17.93H221.65v48.66h10.08Z"/></svg>