<svg id="Layer_1" data-name="Layer 1" xmlns="http://www.w3.org/2000/svg" viewBox="0 0 300 300"><title>Untitled-1</title><path d="M249,77.22,184,15.13A26.58,26.58,0,0,0,165,7.5H90c-26,0-47.5,21.88-47.5,48.35v188.3c0,26.47,26.33,48.35,52.33,48.35H210c26,0,47.5-21.88,47.5-48.35V97.58A27.94,27.94,0,0,0,249,77.22ZM175.65,22.47l64.65,61.9H191.65a16,16,0,0,1-16-16.29Zm70.54,73V241.75c0,19.05-11.35,41.15-39.92,40.55H93.72c-28.57-2.93-39.91-22.11-39.91-41.16v-181c-1.88-23.46,17-42.44,36.86-42.39h75.45V65.33c0,15.87,13,29.1,28.6,29.1h51.47Zm-166,150a6.75,6.75,0,1,0,6.68,6.74A6.46,6.46,0,0,0,80.16,245.45ZM96.34,218.3H107v-9H96.34Zm.26,38.27c0,3-1.45,4.13-3.58,4.13a11.4,11.4,0,0,1-2.12-.2v7.93a20.63,20.63,0,0,0,4.38.4c7.42,0,11.4-3.6,11.4-11.46V222.24H96.6Zm34.88-20.2c-3.85-1.33-7.23-2.27-7.23-4.27V232c0-1.4,1.26-2.47,3.72-2.47s6.1,1.27,9.61,3.34l3.85-7a24.55,24.55,0,0,0-13.27-4.14c-7.16,0-13,4.07-13,11.34v.13c0,6.93,5.63,9.27,10.61,10.73,3.91,1.2,7.36,1.94,7.36,4.14v.13c0,1.6-1.33,2.67-4.25,2.67-3.31,0-7.36-1.47-11.2-4.27l-4.31,6.67a24.83,24.83,0,0,0,15.25,5.39c7.69,0,13.59-3.6,13.59-11.53V247C142.22,240.44,136.45,238,131.48,236.37ZM167,221.57c-11.07,0-19.3,8.33-19.3,18.6v.13c0,10.27,8.16,18.47,19.17,18.47s19.29-8.33,19.29-18.6V240C186.18,229.77,178,221.57,167,221.57Zm9.22,18.73c0,5.27-3.45,9.74-9.22,9.74-5.57,0-9.35-4.6-9.35-9.87V240c0-5.27,3.45-9.74,9.22-9.74,5.57,0,9.35,4.6,9.35,9.87Zm17.23-18.06V258h10.08V238c0-4.8,2.45-7.27,6.3-7.27s6.1,2.47,6.1,7.27V258H226V234.84c0-8.2-4.44-13.27-12.07-13.27-5.1,0-8.09,2.73-10.41,5.73v-5.06Z"/></svg>