<svg id="Layer_1" data-name="Layer 1" xmlns="http://www.w3.org/2000/svg" viewBox="0 0 300 300"><title>Untitled-1</title><path d="M282.15,47.44H17.85A9.93,9.93,0,0,0,8,57.35V219c0,5.43,4.13,9.58,9.85,9.9h264.3A9.93,9.93,0,0,0,292,219V57.35A9.93,9.93,0,0,0,282.15,47.44Zm-2.22,165.5a4.36,4.36,0,0,1-4.45,4.47H24.2a4.36,4.36,0,0,1-4.45-4.47V63.42A4.35,4.35,0,0,1,24.2,59H275.48a4.55,4.55,0,0,1,4.45,4.47Zm-55.28,28.43H76c-4.13,0-7,1.28-7,5.75,0,3.84,2.86,5.44,6.67,5.44h149a5.45,5.45,0,0,0,5.72-5.44A5.71,5.71,0,0,0,224.65,241.37Zm-153.18-138H58.73v58.22h41.6V149.93H71.47Zm39,58.22h12.73V103.36H110.51ZM162,144.36l-15.14-41H132.76L156.16,162H167.4l23.41-58.63H177.08ZM212.4,138h27.29v-11.4H212.4V114.75h31V103.36H199.75v58.22h44.07v-11.4H212.4Z"/></svg>