<svg id="Layer_1" data-name="Layer 1" xmlns="http://www.w3.org/2000/svg" viewBox="0 0 300 300"><title>Untitled-1</title><path d="M293.74,116.5,254,100.18l38.45-13L188,42.88,149.77,57.63,112,42.88,9.29,86.64l34.89,14.58L6.26,117.4l43.53,17.69.05,82.39,98.77,39.64,97.64-38.22,3.29-1.53V134.26Zm-17.37-.26L187.6,151,158.66,139.4l84.91-34.74ZM187.6,48.7l88.77,36.66-32.8,11.58L156.73,62.21Zm48.23,52.42-87,34.4L62.19,102.07l87.57-36ZM27.44,85.36l84.9-34.73,32.81,11.58L54.45,96.94Zm-7.72,30.88,30.15-13.16,91.42,36.32-27,11.57Zm36.66,96.49V137.47l53.71,20.8,1.85.65,2-.65L144.82,146l.28-.11-1.88,103.54Zm186.41-31-37.45,13a2.4,2.4,0,0,0-2.16,2.59l.15,1a2.42,2.42,0,0,0,2.83,1.86l36.78-12.72.25,10L214.64,207a2.11,2.11,0,0,0-1.72,2.39l.08,1a2.12,2.12,0,0,0,2.07,2.1l28.26-9.43.24,9.62-92.63,36.66.82-104.85,36.46,14.36,53.46-21.48Z"/></svg>