<svg id="Layer_1" data-name="Layer 1" xmlns="http://www.w3.org/2000/svg" viewBox="0 0 300 300"><title>Untitled-1</title><path d="M148.74,32.41,40,78.87a3.17,3.17,0,0,0-1.84,2.9V218.06A3.18,3.18,0,0,0,40,220.87l108.78,46.46a3.16,3.16,0,0,0,2.52,0L260,217.77a3.17,3.17,0,0,0,1.84-2.81V81.77a3.17,3.17,0,0,0-1.84-2.9L151.26,32.41M150,38.7l27.29,11.61L79,93.58,50.65,81.09,150,38.7m73.62,31.46,27.19,11.61L150,124.75l-23.6-10.36Zm-179.29,15L75.41,98.81v60.4a3.28,3.28,0,0,0,4.47,2.71l16.22-8,17.09,25.55c1.43,2.24,5.72,1,5.73-1.65V118l28,12.3V259.68L44.33,215.93Zm211.34,1.26V162q-20.83,9.55-41.67,19.16a3.11,3.11,0,1,0,2.53,5.62l39.14-18V186.7l-29.24,13a3.27,3.27,0,0,0-1.55,4.16,3.17,3.17,0,0,0,4.08,1.55l26.71-11.81v19.36L153.11,259.59V130.27Z"/></svg>