<?xml version="1.0" encoding="utf-8"?>
<!-- Generator: Adobe Illustrator 22.1.0, SVG Export Plug-In . SVG Version: 6.00 Build 0)  -->
<svg version="1.1" id="Layer_1" xmlns="http://www.w3.org/2000/svg" xmlns:xlink="http://www.w3.org/1999/xlink" x="0px" y="0px"
	 viewBox="0 0 300 300" style="enable-background:new 0 0 300 300;" xml:space="preserve">
<style type="text/css">
	.st0{fill:none;stroke:#000000;stroke-width:20;stroke-miterlimit:10;}
	.st1{stroke:#000000;stroke-miterlimit:10;}
</style>
<path class="st1" d="M146.3,96.9l-1.1-0.6c-0.1,0-0.1-0.1-0.2-0.1c-0.2-0.1-0.4-0.3-0.7-0.4c-0.1-0.1-0.2-0.1-0.3-0.2
	c-0.2-0.1-0.4-0.3-0.7-0.4c-0.2-0.1-0.4-0.2-0.6-0.3c0.9,0.5-2.5-1.4-2.5-1.4l-0.1-0.1c-0.1-0.1-0.2-0.1-0.3-0.1c0,0-0.1,0-0.1,0
	c-6.2-3.3-12.4-6.6-18.5-9.8c-6.2-3.3-12.6-6.7-18.9-10c-0.6-0.3-1.3-0.7-1.9-1c-0.6-0.3-1.2-0.7-1.9-1c-0.3-0.2-0.6-0.3-0.9-0.5
	c-0.3-0.2-0.6-0.3-0.9-0.5c-0.3-0.2-0.6-0.3-0.9-0.5c-0.3-0.2-0.6-0.3-0.9-0.5l0,0c-0.9-0.5-1.9-1-2.8-1.5c-0.8-0.4-1.7-0.9-2.5-1.3
	l-0.4-0.2c-0.3-0.1-0.5-0.3-0.8-0.4c-0.4-0.2-0.8-0.4-1-0.5l-3.1-1.9c-0.5-0.3-1.1,0.1-1.1,0.6v65.8c0,0.3,0.2,0.5,0.4,0.6l1.2,0.6
	c1.2,0.6,2.3,1.2,3.4,1.8c0.6,0.4,1.3,0.7,1.9,1.1c12.7,6.7,25.4,13.5,37.7,20.1l0,0c4.9,2.6,10,5.3,14.9,8l3,1.6
	c0.5,0.3,1-0.1,1-0.6V97.5C146.7,97.3,146.5,97,146.3,96.9z M141.2,153.9c0,0.5-0.6,0.9-1,0.6c-3.3-1.8-6.6-3.5-9.9-5.3l0,0
	c-12.3-6.5-25-13.3-37.7-20.1c-0.6-0.3-1.2-0.7-1.8-1c-0.6-0.3-1.2-0.6-1.8-1c-0.2-0.1-0.4-0.4-0.4-0.6l0-54.2
	c0.3,0.1,0.5,0.3,0.8,0.4c0.9,0.5,1.8,1,2.8,1.5c0.3,0.2,0.6,0.3,0.9,0.5c0.3,0.2,0.6,0.3,0.9,0.5l0,0c0.3,0.2,0.6,0.3,0.9,0.5
	c0.3,0.2,0.6,0.3,0.9,0.5c0.6,0.3,1.3,0.7,1.9,1c0.6,0.3,1.2,0.7,1.9,1c6.3,3.3,12.7,6.7,18.9,10c6.2,3.3,12.6,6.7,18.9,10l0.1,0
	c0.1,0.1,0.2,0.1,0.4,0.1c0.1,0.1,0.2,0.1,0.4,0.2c0,0,0.1,0.1,0.1,0.1c0.2,0.1,0.4,0.2,0.5,0.3c0.2,0.1,0.5,0.3,0.7,0.4
	c0.4,0.2,0.7,0.4,1.1,0.6l0,0c0.1,0.1,0.3,0.2,0.5,0.3c0,0,0.1,0,0.1,0.1V153.9z M193,76c-12,6.4-24.2,12.8-36,19.1l0,0
	c-0.2,0.1-0.5,0.2-0.7,0.4c-0.6,0.3-1.3,0.6-1.9,1.1l-0.8,0.6c-0.2,0.1-0.3,0.3-0.3,0.6v65.3c0,0.5,0.6,0.9,1,0.6l3-1.6
	c4-2.1,8-4.3,12-6.3c2.4-1.2,4.8-2.5,7.1-3.8c0.2-0.1,0.4-0.2,0.6-0.3c0,0,0.1,0,0.1-0.1l0.1,0c6-3.2,12-6.4,18-9.6
	c6-3.2,12-6.4,18-9.6c0.2-0.1,0.4-0.2,0.6-0.3c0.3-0.2,0.6-0.3,0.9-0.5c0.1-0.1,0.2-0.1,0.3-0.1h1.3c0.4,0,0.7-0.3,0.7-0.7V64.5
	c0-0.5-0.6-0.9-1-0.6l-3,1.6c-3.5,1.9-7.1,3.8-10.6,5.6C199.2,72.7,196.1,74.4,193,76z M210.4,73.1c0.5-0.2,1,0.1,1,0.6v53.4
	c-0.1,0.1-0.2,0.1-0.3,0.2c-0.2,0.1-0.4,0.2-0.6,0.3c-6,3.2-12,6.4-18,9.6c-6,3.2-12,6.4-18,9.5c-0.1,0.1-0.3,0.1-0.4,0.2
	c0,0-0.1,0.1-0.1,0.1l-0.2,0.1c-2.4,1.3-4.8,2.5-7.2,3.8c-2.3,1.2-4.6,2.4-6.9,3.6c-0.5,0.2-1-0.1-1-0.6v-53c0-0.3,0.2-0.5,0.4-0.6
	c0.1-0.1,0.3-0.1,0.4-0.2c11.8-6.3,24-12.8,36-19.1c3.1-1.6,6.2-3.3,9.3-4.9C206.7,75.1,208.5,74.1,210.4,73.1z M194.5,67.9l0.2-0.1
	c2.3-1.2,4.7-2.5,7-3.7c2.3-1.2,4.7-2.5,7-3.7l3.4-1.8c0.5-0.3,0.5-1,0-1.2l-3.4-1.8c-12-6.4-24.4-13-36.6-19.5
	c-2.2-1.2-4.5-2.4-6.7-3.6c-4.7-2.5-9.4-5-14.1-7.5l-1-0.5c-0.2-0.1-0.5-0.1-0.7,0L105.3,48c-2.3,1.2-4.7,2.5-7,3.7
	c-2.3,1.2-4.7,2.5-7,3.7l-3.4,1.8c-0.5,0.3-0.5,1,0,1.2l3.4,1.8c6.1,3.2,12.1,6.5,18.2,9.7c6.1,3.3,12.3,6.5,18.4,9.8
	c3.5,1.8,6.9,3.7,10.4,5.5c3.5,1.8,6.9,3.7,10.4,5.5l1,0.5c0.2,0.1,0.5,0.1,0.7,0l6.6-3.5C169.4,81.2,182.1,74.5,194.5,67.9z
	 M150.3,85.1c-0.2,0.1-0.5,0.1-0.7,0c-2.9-1.6-5.8-3.1-8.7-4.7c-3.5-1.8-6.9-3.7-10.4-5.5c-6.1-3.3-12.3-6.5-18.4-9.8
	c-4.1-2.2-8.3-4.4-12.4-6.6c-0.5-0.3-0.5-1,0-1.2c0.4-0.2,0.8-0.4,1.2-0.7c2.3-1.2,4.7-2.5,7-3.7l22.8-12.1l18.9-10.1
	c0.2-0.1,0.5-0.1,0.7,0c4.2,2.2,8.3,4.4,12.5,6.6c2.2,1.2,4.5,2.4,6.7,3.6c10.3,5.5,20.7,11,30.8,16.4c0.5,0.3,0.5,1,0,1.2
	c-0.4,0.2-0.8,0.4-1.2,0.7c-2.3,1.2-4.7,2.5-7,3.7l-0.2,0.1c-12.3,6.5-25,13.3-37.6,20L150.3,85.1z M74.8,207.9
	c-0.1,0-0.2,0-0.3-0.1c-0.7-0.4-1.5-0.8-2.2-1.2c-0.5-0.3-1-0.5-1.4-0.8c-0.2-0.1-0.4-0.2-0.6-0.3c-0.2-0.1-0.3-0.2-0.5-0.3l-0.1,0
	c-0.2-0.1-0.4-0.2-0.6-0.3c0,0-0.1,0-0.1,0c-4.9-2.6-9.7-5.2-14.6-7.7c-7.3-3.9-14.9-7.9-22.4-11.9c-1.4-0.9-2.9-1.6-4.3-2.3
	c-0.5-0.2-0.9-0.5-1.4-0.7c-1-0.5-2.1-1.1-3.1-1.7c-0.8-0.4-1.6-0.9-2.4-1.3c-0.1-0.1-0.3-0.2-0.6-0.3c-0.3-0.1-0.6-0.3-0.9-0.4
	c-0.7-0.4-1.6-0.8-2-1.1l-3.2-2.3c-0.5-0.3-1.1,0-1.1,0.6v66c0,0.2,0.1,0.5,0.3,0.6l1,0.6c1.3,0.8,2.8,1.6,4.3,2.3
	c0.5,0.3,1,0.5,1.5,0.8c9.3,4.9,18.8,10,27.9,14.8l9.7,5.2c1.6,0.8,3.1,1.7,4.7,2.5c3.2,1.8,6.6,3.6,10.2,5.4l3,1.5
	c0.5,0.2,1-0.1,1-0.6v-66.2L74.8,207.9z M71.1,265.8c0,0.5-0.6,0.9-1,0.6c-1.7-0.9-3.4-1.8-5-2.7c-1.5-0.8-3.1-1.7-4.7-2.5l-9.7-5.2
	c-9.2-4.9-18.6-9.9-28-14.9c-0.5-0.3-1-0.5-1.6-0.8c-0.8-0.4-1.5-0.8-2.2-1.2c-0.2-0.1-0.4-0.4-0.4-0.6v-53.1c0-0.5,0.6-0.9,1-0.6
	c0.4,0.2,0.7,0.4,1.1,0.6c1,0.6,2.1,1.2,3.2,1.7c0.5,0.3,0.9,0.5,1.4,0.7c1.4,0.7,2.8,1.4,4.1,2.2l0.1,0.1c7.5,4,15.1,8,22.4,11.9
	c5,2.6,10,5.3,15,8l0.6,0.3h0.1c0,0,0.1,0,0.1,0c0.2,0.1,0.3,0.2,0.5,0.3c0.5,0.3,1,0.5,1.4,0.8c0.4,0.2,0.8,0.4,1.1,0.6
	c0.2,0.1,0.4,0.4,0.4,0.6V265.8z M145.6,175.2l-3.2,2.3c-0.2,0.2-0.7,0.4-1.1,0.6c-0.2,0.1-0.5,0.2-0.7,0.4l0,0
	c-2.1,1.2-4.3,2.3-6.4,3.4l-2,1.1c-0.3,0.2-0.6,0.3-0.9,0.5c-0.3,0.1-0.5,0.3-0.8,0.4l0,0c-2.9,1.5-5.2,2.7-7.5,4
	c-2.2,1.2-4.4,2.3-6.5,3.5c-4.6,2.4-9.1,4.9-13.7,7.3c-2.6,1.4-5.2,2.8-7.8,4.2c-2.6,1.4-5.3,2.8-7.9,4.2c-0.6,0.3-1.3,0.7-1.9,1
	c-1.4,0.5-1.9,1.7-1.9,2.7V275c0,0.5,0.6,0.9,1,0.6l3-1.6c8.6-4.5,17.2-9.1,25.5-13.5c4-2.1,7.9-4.2,11.9-6.4l5.2-2.8
	c5.1-2.7,10.4-5.5,15.6-8.3l1.1-0.6c0.2-0.1,0.4-0.4,0.4-0.6v-66.1C146.7,175.2,146,174.9,145.6,175.2z M141.2,238.5
	c0,0.3-0.1,0.5-0.4,0.6c-4.6,2.5-9.2,4.9-13.8,7.3l-5.2,2.8c-4,2.1-8,4.2-11.9,6.4c-6.6,3.6-13.5,7.2-20.4,10.8
	c-0.5,0.2-1-0.1-1-0.6l0-53c0-0.3,0.1-0.5,0.4-0.6c0.2-0.1,0.3-0.2,0.5-0.3c2.6-1.4,5.3-2.8,7.9-4.2c2.6-1.4,5.2-2.8,7.8-4.2
	c4.6-2.4,9.1-4.9,13.7-7.3c2.2-1.2,4.4-2.3,6.5-3.5c2.2-1.2,4.6-2.4,7.4-3.9c0.3-0.2,0.6-0.3,0.9-0.5c0.3-0.1,0.5-0.3,0.8-0.4
	l2.1-1.1c1.2-0.6,2.3-1.2,3.5-1.9c0.5-0.2,1,0.1,1,0.6V238.5z M85.3,200.5c0.5-0.2,0.9-0.5,1.4-0.7c12.7-6.8,25.4-13.5,37.7-20.1
	c1-0.5,1.9-1,2.9-1.5c3.7-2,7.6-4,11.2-6l3.3-1.9c0.5-0.3,0.5-1,0-1.2l-3.3-1.8c-8.2-4.4-16.5-8.8-24.5-13.1c-4-2.1-8-4.2-11.9-6.4
	c-2.6-1.4-5.2-2.8-7.8-4.1c-2.6-1.4-5.2-2.7-7.8-4.1c-0.5-0.3-1.1-0.6-1.6-0.9c-1.2-0.6-2.4-1.3-3.7-1.9l-0.8-0.4
	c-0.2-0.1-0.4-0.1-0.6,0l-0.9,0.4c-1.4,0.6-2.8,1.4-4.1,2.1c-0.6,0.3-1.1,0.6-1.7,0.9c-6.3,3.3-12.5,6.7-18.8,10
	c-6.3,3.3-12.6,6.7-18.9,10c-2.3,1.2-4.7,2.5-7,3.7c-2.3,1.2-4.7,2.5-7,3.7l-3.4,1.8c-0.5,0.3-0.5,1,0,1.2l3.4,1.8
	c11.9,6.3,24.2,12.9,36.6,19.5l21.7,11.6c0.2,0.1,0.5,0.1,0.7,0l3.8-2C84.4,201,84.8,200.7,85.3,200.5z M81.3,196.3l-1.2,0.6
	c-0.2,0.1-0.5,0.1-0.7,0l-19.1-10.2c-10.4-5.5-20.7-11-30.8-16.4c-0.5-0.3-0.5-1,0-1.2c0.4-0.2,0.8-0.4,1.2-0.7
	c2.3-1.2,4.7-2.5,7-3.7c6.3-3.4,12.6-6.7,18.9-10c6.3-3.3,12.5-6.7,18.8-10c0.6-0.3,1.2-0.7,1.8-1c0.7-0.4,1.5-0.8,2.2-1.2
	c0.2-0.1,0.4-0.1,0.6,0c0.6,0.3,1.3,0.7,2,1c0.5,0.3,1.1,0.6,1.6,0.9c2.6,1.4,5.2,2.8,7.8,4.1c2.6,1.4,5.2,2.7,7.7,4.1
	c4,2.1,8,4.2,12,6.4c6.2,3.3,12.5,6.7,18.9,10.1c0.5,0.3,0.5,1,0,1.2c-1.8,1-3.6,1.9-5.4,2.8c-1,0.5-1.9,1-2.9,1.5
	c-12.3,6.5-25,13.3-37.7,20.1c-0.5,0.3-0.9,0.5-1.4,0.8C82.2,195.8,81.8,196.1,81.3,196.3z M216.6,208.7l-1.2-0.6
	c-1-0.5-1.8-0.9-2.7-1.4c-0.5-0.3-1-0.6-1.6-0.9c-0.2-0.1-0.4-0.2-0.6-0.3c-0.2-0.1-0.3-0.2-0.5-0.3l0,0c-7.6-4-15.3-8.1-22.8-12.1
	c-5-2.7-10-5.3-15-8c-2.4-1.3-4.9-2.6-7.3-3.9c-2.6-1.4-5.1-2.7-7.7-4.1l-3-1.6c-0.5-0.3-1,0.1-1,0.6v65.7c0,0.3,0.1,0.5,0.4,0.6
	l1.1,0.6c1,0.5,2.1,1.1,3.1,1.6c0.8,0.5,1.7,0.9,2.6,1.4c9.3,4.9,18.7,10,27.9,14.8l9.8,5.2c1.7,0.9,3.3,1.8,5,2.7
	c3.2,1.7,6.4,3.5,9.9,5.2l3,1.5c0.5,0.2,1-0.1,1-0.6v-65.5C217,209.1,216.8,208.9,216.6,208.7z M211.4,265.8c0,0.5-0.6,0.9-1,0.6
	c-1.6-0.9-3.2-1.7-4.7-2.6c-1.6-0.9-3.3-1.8-5-2.7l-9.8-5.2c-9.1-4.9-18.6-9.9-27.9-14.8c-0.8-0.4-1.7-0.9-2.5-1.4
	c-0.4-0.2-0.8-0.5-1.3-0.7c-0.2-0.1-0.4-0.4-0.4-0.6v-53.1c0-0.5,0.6-0.9,1-0.6c0.9,0.5,1.7,0.9,2.6,1.4c2.4,1.3,4.9,2.6,7.3,3.9
	c5,2.7,10,5.3,15,8c7.5,4,15.2,8.1,22.7,12.1c0.2,0.1,0.4,0.2,0.5,0.3c0.2,0.1,0.3,0.2,0.5,0.3c0.5,0.3,1,0.5,1.5,0.8
	c0.4,0.2,0.7,0.4,1.1,0.6c0.2,0.1,0.4,0.4,0.4,0.6V265.8z M286,175.8l-3,1.6c-3.1,1.7-6.3,3.4-9.4,5c-2.5,1.3-5,2.6-7.5,4l-0.4,0.2
	l0,0c-0.1,0-0.2,0.1-0.3,0.1c-0.2,0.1-0.4,0.2-0.6,0.3c-0.1,0.1-0.3,0.1-0.4,0.2c-0.3,0.1-0.6,0.3-0.8,0.5c-0.1,0-0.1,0.1-0.2,0.1
	c0,0,0,0-0.1,0c-0.1,0-0.1,0.1-0.2,0.1c-4.7,2.5-9.4,5-14.1,7.5c-7.1,3.8-14.5,7.7-21.7,11.5c-0.1,0-0.2,0.1-0.4,0.2l-0.2,0.1l0,0
	c-0.1,0.1-0.2,0.1-0.3,0.2c0,0,0,0-0.1,0c-0.1,0-0.1,0-0.2,0.1l-0.4,0.2c0,0-0.1,0-0.1,0.1c0,0-0.1,0-0.1,0H224
	c-0.4,0-0.7,0.3-0.7,0.7v66.4c0,0.5,0.6,0.9,1,0.6l3-1.6c8.6-4.5,17.1-9.1,25.4-13.5c4-2.1,8-4.3,12-6.4l5.2-2.7
	c5.1-2.7,10.5-5.6,15.6-8.3l1.1-0.6c0.2-0.1,0.4-0.4,0.4-0.6l0-65.5C287,175.8,286.4,175.5,286,175.8z M263.3,187.8
	C263.3,187.8,263.3,187.7,263.3,187.8l0.8,1.9l0,0l-0.9-1.7C263.2,187.8,263.2,187.8,263.3,187.8z M281.5,238.5
	c0,0.3-0.1,0.5-0.4,0.6c-4.6,2.5-9.3,4.9-13.8,7.3l-5.2,2.8c-4,2.1-8,4.3-12,6.4c-6.6,3.5-13.4,7.2-20.3,10.8c-0.5,0.2-1-0.1-1-0.6
	v-53c0.1-0.2,0.2-0.4,0.4-0.6c0.1-0.1,0.2-0.1,0.3-0.2l0,0l0,0c0.1,0,0.2-0.1,0.3-0.2c7.2-3.8,14.5-7.7,21.6-11.5
	c4.7-2.5,9.4-5,14.1-7.5c0.2-0.1,0.4-0.2,0.6-0.3c0.2-0.1,0.5-0.2,0.7-0.4c0.1-0.1,0.3-0.1,0.4-0.2c0.2-0.1,0.4-0.2,0.6-0.3
	c0.2-0.1,0.4-0.2,0.6-0.3l0.4-0.2l0,0c2.4-1.3,4.8-2.5,7.2-3.8c1.4-0.8,2.9-1.5,4.4-2.3c0.5-0.2,1,0.1,1,0.6L281.5,238.5z
	 M224.6,201l0.4-0.2c0.1-0.1,0.2-0.1,0.3-0.2l0,0c0.2-0.1,0.5-0.3,0.7-0.4c0.3-0.2,0.7-0.4,1-0.6l37.7-20.1c2.3-1.2,4.7-2.5,7-3.7
	c2.3-1.2,4.7-2.5,7-3.7l3.4-1.8c0.5-0.3,0.5-1,0-1.2l-3.4-1.8c-13.6-7.2-25.6-13.6-36.6-19.5c-6.9-3.7-13.9-7.4-20.7-11l-1-0.5
	c-0.2-0.1-0.5-0.1-0.7,0l-6.6,3.5c-12.5,6.6-25.1,13.4-37.4,19.9l-0.3,0.2c-2.3,1.2-4.6,2.5-7,3.7c-2.3,1.2-4.7,2.5-7,3.7l-3.5,1.8
	c-0.5,0.3-0.5,1,0,1.2l3.4,1.8c1.1,0.6,2.3,1.2,3.4,1.8c1.1,0.6,2.3,1.2,3.4,1.8c0.4,0.2,0.8,0.4,1.2,0.6c0.4,0.2,0.7,0.4,1.1,0.6
	l0,0c3,1.6,6,3.2,9.1,4.8c3,1.6,6.1,3.3,9.1,4.9c3.1,1.6,6.1,3.3,9.2,4.9c2.1,1.1,4.1,2.2,6.2,3.3c4.8,2.5,9.7,5.1,14.5,7.8l1.1,0.6
	c0.2,0.1,0.5,0.1,0.8,0l1.1-0.8c0.1-0.1,0.3-0.2,0.5-0.3c0.1-0.1,0.3-0.1,0.4-0.2c0.3-0.1,0.6-0.3,0.8-0.4
	C223.8,201.4,224.2,201.2,224.6,201z M222.5,195.9c-0.1,0-0.2,0.1-0.3,0.1c-0.6,0.3-1.1,0.6-1.7,0.9c-0.2,0-0.4,0-0.7,0
	c-4.4-2.4-8.7-4.7-13-6.9c-2.1-1.1-4.1-2.2-6.2-3.2c-3-1.6-6.1-3.3-9.1-4.9c-3.1-1.6-6.1-3.3-9.1-4.9c-3.1-1.7-6.1-3.3-9.2-4.9
	c-0.4-0.2-0.8-0.4-1.1-0.6c-0.4-0.2-0.7-0.4-1.1-0.6c-0.4-0.2-0.7-0.4-1.1-0.6c0-0.6,0-0.7,0-1.2c2.7-1.5,5.5-2.9,8.2-4.4l0.3-0.2
	c12.2-6.5,24.9-13.3,37.4-19.9l4-2.1c0.2-0.1,0.5-0.1,0.7,0c6.3,3.4,12.8,6.8,19.1,10.2c9.4,5.1,19.6,10.5,30.8,16.4
	c0,0.6,0,0.7,0,1.2c-2.8,1.5-5.5,2.9-8.3,4.4l-37.7,20.1c-0.4,0.2-0.7,0.4-1.1,0.6C223.1,195.5,222.8,195.7,222.5,195.9z"/>
</svg>
