<?xml version="1.0" encoding="utf-8"?>
<!-- Generator: Adobe Illustrator 22.1.0, SVG Export Plug-In . SVG Version: 6.00 Build 0)  -->
<svg version="1.1" id="Layer_1" xmlns="http://www.w3.org/2000/svg" xmlns:xlink="http://www.w3.org/1999/xlink" x="0px" y="0px"
	 viewBox="0 0 300 300" style="enable-background:new 0 0 300 300;" xml:space="preserve">
<style type="text/css">
	.st0{fill:none;stroke:#000000;stroke-width:20;stroke-miterlimit:10;}
	.st1{stroke:#000000;stroke-miterlimit:10;}
</style>
<g>
	<g>
		<path d="M271.9,90.3c0-0.4-0.1-0.7-0.2-1.1c0-0.1,0-0.3,0-0.4c-0.2-0.5-0.5-0.9-0.8-1.3l-71.5-76.4c-0.3-0.3-0.6-0.5-0.9-0.8h-0.3
			c-0.3-0.2-0.6-0.3-1-0.4c-0.3,0-0.6,0-1,0h-84.7c-9,0-16.3,7.4-16.3,16.4V27H75.4c-9,0-16.4,7.3-16.4,16.4v7H44.4
			c-9,0-16.4,7.3-16.4,16.4v206.8c0,9,7.3,16.4,16.4,16.4h144.1c9,0,16.3-7.4,16.3-16.4v-7h14.6c9,0,16.4-7.3,16.4-16.4v-0.6h19.7
			c9,0,16.4-7.3,16.4-16.4V90.6C271.9,90.6,271.9,90.4,271.9,90.3z M200.6,25.6l32.3,34.6L257,86.1h-49.5c-1.6-0.2-3.1-0.9-4.3-2
			l-0.8-0.8c-1-1.3-1.7-2.9-1.8-4.5v-0.5l0-3.8V25.6z M188.6,280.8H44.4c-4.1,0-7.3-3.3-7.3-7.4v-207c0-4.1,3.3-7.4,7.3-7.4H59
			v191.2c0,9,7.3,16.4,16.4,16.4h120.4l0.1,6.8C195.9,277.5,192.6,280.8,188.6,280.8z M226.8,250.1c0,4.1-3.3,7.4-7.3,7.4H75.4
			c-4.1,0-7.3-3.3-7.3-7.4V43c0-4.1,3.3-7.4,7.3-7.4h19.7v197.6c0,9,7.3,16.4,16.3,16.4h115.4V250.1z M255.6,240.4H111.4
			c-4,0-7.3-3.3-7.3-7.3V26.1c0-4,3.2-7.3,7.3-7.4h80.1v59.5c0,9.4,7.6,16.9,16.9,16.9h54.5l0,138
			C262.9,237.2,259.7,240.4,255.6,240.4z M141.9,42.6c-2.8-2.2-6.2-3.4-9.7-3.4l-0.1-0.1c-6.8,0-12.8,4.5-14.7,11
			c-0.5,1.5-0.7,3-0.8,4.5c0,1.5,0.3,3.1,0.8,4.5c2,6.5,8,11,14.7,11c1.5,0,3.1-0.3,4.5-0.8c1.5-0.5,3-1.1,4.4-2
			c1.2-0.8,2.3-1.9,3.3-3C149.6,57.6,148.5,47.9,141.9,42.6z M138,57.4c-0.7,1.4-1.9,2.4-3.3,3c-0.8,0.3-1.6,0.5-2.5,0.5
			c-3.6,0-6.5-2.9-6.5-6.5c0-3.6,2.9-6.5,6.5-6.5c3.6,0,6.5,2.9,6.5,6.5C138.7,55.5,138.4,56.5,138,57.4z M132.1,88.5
			c-8.6,0-15.5,6.9-15.5,15.5c0,8.6,6.9,15.5,15.5,15.5c8.6,0,15.5-7,15.5-15.5C147.6,95.5,140.6,88.5,132.1,88.5z M132.2,110.6
			C132.2,110.6,132.1,110.6,132.2,110.6l-0.1-0.1c-3.6,0-6.5-2.9-6.5-6.5c0-3.6,2.9-6.5,6.5-6.5c3.6,0,6.5,2.9,6.5,6.5
			C138.6,107.6,135.8,110.6,132.2,110.6z M132.1,138c-8.6,0-15.5,7-15.5,15.5c0,8.6,6.9,15.5,15.5,15.5c8.6,0,15.5-7,15.5-15.5
			C147.6,144.9,140.6,138,132.1,138z M138.6,153.5c0,3.6-2.9,6.5-6.5,6.5c-3.6,0-6.5-2.9-6.5-6.5c0-3.6,2.9-6.5,6.5-6.5
			C135.7,147,138.6,149.9,138.6,153.5L138.6,153.5z M132.1,187.5c-8.6,0-15.5,7-15.5,15.5c0,8.6,6.9,15.5,15.5,15.5
			c8.6,0,15.5-6.9,15.5-15.5C147.6,194.4,140.6,187.5,132.1,187.5z M138.6,203c0,3.6-2.9,6.5-6.5,6.5c-3.6,0-6.5-2.9-6.5-6.5
			s2.9-6.5,6.5-6.5C135.7,196.5,138.6,199.4,138.6,203L138.6,203z M248.4,114.1h-62.4v0.2c-0.3,0-0.7,0-1,0c-1.5,0.4-2.7,1.5-3.2,3
			c-0.1,0.4-0.2,0.9-0.2,1.3c0,0.1,0,0.1,0,0.2c0.1,2.4,2.1,4.4,4.5,4.3h62.3c2.5,0,4.5-2,4.5-4.5
			C252.9,116.1,250.8,114.1,248.4,114.1z M248.2,147.1H165c-2.5,0-4.5,2-4.5,4.5c0,2.5,2,4.5,4.5,4.5h83.2c2.5,0,4.5-2,4.5-4.5
			C252.7,149.1,250.7,147.1,248.2,147.1z M248.2,180H165c-2.5,0-4.5,2-4.5,4.5s2,4.5,4.5,4.5h83.2c2.5,0,4.5-2,4.5-4.5
			S250.7,180,248.2,180z M248.2,212.7H165c-2.5,0-4.5,2-4.5,4.5c0,2.5,2,4.5,4.5,4.5h83.2c2.5,0,4.5-2,4.5-4.5
			C252.7,214.7,250.7,212.7,248.2,212.7z"/>
	</g>
</g>
</svg>
