<?xml version="1.0" encoding="utf-8"?>
<!-- Generator: Adobe Illustrator 22.1.0, SVG Export Plug-In . SVG Version: 6.00 Build 0)  -->
<svg version="1.1" id="Layer_1" xmlns="http://www.w3.org/2000/svg" xmlns:xlink="http://www.w3.org/1999/xlink" x="0px" y="0px"
	 viewBox="0 0 300 300" style="enable-background:new 0 0 300 300;" xml:space="preserve">
<g>
	<g>
		<path d="M215.7,201.5c15.9-19.1,25.5-43.7,25.5-70.5c0-60.9-49.4-110.3-110.2-110.3C70.1,20.7,20.7,70.1,20.7,131
			s49.4,110.3,110.2,110.3c26.9,0,51.5-9.6,70.6-25.6l62.6,62.6l14.2-14.2L215.7,201.5z M130.9,221.2c-49.8,0-90.2-40.4-90.2-90.2
			s40.4-90.2,90.2-90.2c49.8,0,90.2,40.4,90.2,90.2S180.8,221.2,130.9,221.2z M75.8,131h-10c0.1,36,29.2,65.1,65.1,65.2v-10
			C100.5,186.1,75.9,161.4,75.8,131z"/>
	</g>
</g>
</svg>
