<?xml version="1.0" encoding="utf-8"?>
<!-- Generator: Adobe Illustrator 22.1.0, SVG Export Plug-In . SVG Version: 6.00 Build 0)  -->
<svg version="1.1" id="Layer_1" xmlns="http://www.w3.org/2000/svg" xmlns:xlink="http://www.w3.org/1999/xlink" x="0px" y="0px"
	 viewBox="0 0 300 300" style="enable-background:new 0 0 300 300;" xml:space="preserve">
<style type="text/css">
	.st0{fill:none;stroke:#000000;stroke-width:20;stroke-miterlimit:10;}
	.st1{stroke:#000000;stroke-miterlimit:10;}
</style>
<path d="M124.8,180.1l-25.2-25.2c-4.6-4.6-12.2-4.6-16.8,0c-4.6,4.6-4.6,12.2,0,16.8l33.6,33.6c2.3,2.3,5.4,3.5,8.4,3.5
	c3,0,6.1-1.2,8.4-3.5l84-84c4.6-4.6,4.6-12.2,0-16.8c-4.6-4.6-12.2-4.6-16.8,0L124.8,180.1z M150,292.5
	C71.3,292.5,7.5,228.7,7.5,150S71.3,7.5,150,7.5S292.5,71.3,292.5,150S228.7,292.5,150,292.5z"/>
</svg>
