<?xml version="1.0" encoding="utf-8"?>
<!-- Generator: Adobe Illustrator 22.1.0, SVG Export Plug-In . SVG Version: 6.00 Build 0)  -->
<svg version="1.1" id="Layer_1" xmlns="http://www.w3.org/2000/svg" xmlns:xlink="http://www.w3.org/1999/xlink" x="0px" y="0px"
	 viewBox="0 0 300 300" style="enable-background:new 0 0 300 300;" xml:space="preserve">
<g>
	<path d="M196.8,103.2l-70.3,70.3L103.2,150c-4.3-4.3-11.3-4.3-15.6,0c-4.3,4.3-4.3,11.3,0,15.6l31.2,31.2c2.2,2.2,5,3.2,7.8,3.2
		s5.7-1.1,7.8-3.2l78.1-78.1c4.3-4.3,4.3-11.3,0-15.6C208.1,98.8,201.2,98.8,196.8,103.2z"/>
</g>
<g>
	<path d="M150,292.5C71.4,292.5,7.5,228.6,7.5,150C7.5,71.4,71.4,7.5,150,7.5c78.6,0,142.5,63.9,142.5,142.5
		C292.5,228.6,228.6,292.5,150,292.5z M150,27.5c-67.5,0-122.5,55-122.5,122.5s55,122.5,122.5,122.5s122.5-55,122.5-122.5
		S217.5,27.5,150,27.5z"/>
</g>
</svg>
