<?xml version="1.0" encoding="utf-8"?>
<!-- Generator: Adobe Illustrator 22.1.0, SVG Export Plug-In . SVG Version: 6.00 Build 0)  -->
<svg version="1.1" id="Layer_1" xmlns="http://www.w3.org/2000/svg" xmlns:xlink="http://www.w3.org/1999/xlink" x="0px" y="0px"
	 viewBox="0 0 300 300" style="enable-background:new 0 0 300 300;" xml:space="preserve">
<path d="M156.6,214.2c0,7-5.6,12.6-12.6,12.6H32.2c-6.9,0-12.6-5.7-12.6-12.6c0-7,5.6-12.6,12.6-12.6H144
	C150.9,201.6,156.6,207.3,156.6,214.2z M156.6,141.8c0,7-5.6,12.6-12.6,12.6H32.2c-6.9,0-12.6-5.7-12.6-12.6c0-7,5.6-12.6,12.6-12.6
	H144C150.9,129.1,156.6,134.8,156.6,141.8z M156.6,64c0,7-5.6,12.6-12.6,12.6H32.2c-6.9,0-12.6-5.7-12.6-12.6
	c0-7,5.6-12.6,12.6-12.6H144C150.9,51.4,156.6,57,156.6,64z M276.6,183c0,0-61.9,62.5-62.2,62.8c-2.2,1.8-5,2.9-8.1,2.9
	c-6.9,0-12.6-5.7-12.6-12.6V63.9c0-7,5.6-12.6,12.6-12.6c6.9,0,12.6,5.7,12.6,12.6v141.5l40-40.2c4.9-4.9,12.9-4.9,17.7,0
	C281.6,170.1,281.6,178.1,276.6,183z"/>
</svg>
