<?xml version="1.0" encoding="utf-8"?>
<!-- Generator: Adobe Illustrator 22.1.0, SVG Export Plug-In . SVG Version: 6.00 Build 0)  -->
<svg version="1.1" id="Layer_1" xmlns="http://www.w3.org/2000/svg" xmlns:xlink="http://www.w3.org/1999/xlink" x="0px" y="0px"
	 viewBox="0 0 300 300" style="enable-background:new 0 0 300 300;" xml:space="preserve">
<path d="M144,98.4H32.2c-6.9,0-12.6-5.7-12.6-12.6c0-7,5.6-12.6,12.6-12.6H144c6.9,0,12.6,5.7,12.6,12.6
	C156.6,92.7,150.9,98.4,144,98.4z M144,170.9H32.2c-6.9,0-12.6-5.7-12.6-12.6c0-7,5.6-12.6,12.6-12.6H144c6.9,0,12.6,5.7,12.6,12.6
	C156.6,165.2,150.9,170.9,144,170.9z M144,248.6H32.2c-6.9,0-12.6-5.7-12.6-12.6c0-7,5.6-12.6,12.6-12.6H144
	c6.9,0,12.6,5.7,12.6,12.6C156.6,243,150.9,248.6,144,248.6z M276.7,134.8c-4.9,4.9-12.8,4.9-17.7,0l-40-40.2v141.5
	c0,7-5.6,12.6-12.6,12.6c-6.9,0-12.6-5.7-12.6-12.6V63.9c0-7,5.6-12.6,12.6-12.6c3.1,0,5.9,1.1,8.1,2.9c0.3,0.3,62.2,62.8,62.2,62.8
	C281.6,121.9,281.6,129.9,276.7,134.8z"/>
</svg>
