<?xml version="1.0" encoding="utf-8"?>
<!-- Generator: Adobe Illustrator 22.1.0, SVG Export Plug-In . SVG Version: 6.00 Build 0)  -->
<svg version="1.1" id="Layer_1" xmlns="http://www.w3.org/2000/svg" xmlns:xlink="http://www.w3.org/1999/xlink" x="0px" y="0px"
	 viewBox="0 0 300 300" style="enable-background:new 0 0 300 300;" xml:space="preserve">
<g>
	<g>
		<path d="M273,52.2h-73.4V37.4c0-15-12.2-27.1-27.3-27.1h-44.5c-15.1,0-27.3,12.1-27.3,27.1v14.7H27c-6.5,0-11.7,5.2-11.7,11.6
			S20.5,75.4,27,75.4h23.8v172.7c0,23.5,19.2,42.6,43,42.6h112.5c23.7,0,43-19.1,43-42.6V75.4H273c6.5,0,11.7-5.2,11.7-11.6
			S279.5,52.2,273,52.2z M123.8,37.4c0-2.1,1.7-3.9,3.9-3.9h44.5c2.2,0,3.9,1.7,3.9,3.9v14.7h-52.3V37.4z M225.4,248.5
			c0,10.7-8.7,19.4-19.5,19.4H93.8c-10.8,0-19.5-8.7-19.5-19.4V75.4h151.5L225.4,248.5z M179.3,239.6c6.5,0,11.7-5.2,11.7-11.6
			V112.2c0-6.4-5.2-11.6-11.7-11.6c-6.5,0-11.7,5.2-11.7,11.6v115.8C167.6,234.4,172.8,239.6,179.3,239.6z M120.7,239.6
			c6.5,0,11.7-5.2,11.7-11.6V112.2c0-6.4-5.2-11.6-11.7-11.6c-6.5,0-11.7,5.2-11.7,11.6v115.8C109,234.4,114.2,239.6,120.7,239.6z"
			/>
	</g>
</g>
</svg>
