<?xml version="1.0" encoding="utf-8"?>
<!-- Generator: Adobe Illustrator 22.1.0, SVG Export Plug-In . SVG Version: 6.00 Build 0)  -->
<svg version="1.1" id="Layer_1" xmlns="http://www.w3.org/2000/svg" xmlns:xlink="http://www.w3.org/1999/xlink" x="0px" y="0px"
	 viewBox="0 0 300 300" style="enable-background:new 0 0 300 300;" xml:space="preserve">
<g>
	<g>
		<path d="M140.5,214.1h-10.1v9.1h-4.2v8.7h4.2v16.9c0,8.3,4.2,10.7,10.4,10.7c3.4,0,5.8-0.8,8-2.1v-8.1c-1.5,0.8-3.1,1.3-5,1.3
			c-2.3,0-3.3-1.1-3.3-3.5v-15.3h8.4v-8.7h-8.4V214.1z M188.5,223.3h-10.6l-6.7,10.5l-6.6-10.5h-10.8l12,17.6L153.3,259h10.6
			l7.2-11.1l7.2,11.1H189l-12.5-18.3L188.5,223.3z M196.7,214.1v9.1h-4.2v8.7h4.2v16.9c0,8.3,4.2,10.7,10.4,10.7
			c3.4,0,5.8-0.8,8-2.1v-8.1c-1.5,0.8-3.1,1.3-5,1.3c-2.3,0-3.3-1.1-3.3-3.5v-15.3h8.4v-8.7h-8.4v-9.1H196.7z M115.7,245.5
			c-3.9,0-6.7,3.4-6.7,6.7c0,3.9,3.3,6.7,6.7,6.7c3.9,0,6.7-3.4,6.7-6.7C122.3,248.3,119.6,245.5,115.7,245.5z M257.1,77.2L192,15
			c-5-5.1-12-7.6-19-7.6H97.9c-26,0-47.5,21.9-47.5,48.4v188.5c0,26.5,26.4,48.4,52.4,48.4h115.3c26,0,47.5-21.9,47.5-48.4V97.5
			C265.6,89.9,262.6,82.3,257.1,77.2z M183.7,22.4l64.7,61.9h-48.7c-9,0-16-7.2-16-16.3V22.4z M254.3,95.4v146.4
			c0,19.1-11.4,41.2-39.9,40.6H101.7c-28.6-2.9-39.9-22.1-39.9-41.2V60c-1.9-23.5,17-42.5,36.9-42.4h75.5v47.7
			c0,15.9,13,29.1,28.6,29.1h51.5C254.3,94.9,254.3,95.4,254.3,95.4z"/>
	</g>
</g>
</svg>
