<?xml version="1.0" encoding="utf-8"?>
<!-- Generator: Adobe Illustrator 22.1.0, SVG Export Plug-In . SVG Version: 6.00 Build 0)  -->
<svg version="1.1" id="Layer_1" xmlns="http://www.w3.org/2000/svg" xmlns:xlink="http://www.w3.org/1999/xlink" x="0px" y="0px"
	 viewBox="0 0 300 300" style="enable-background:new 0 0 300 300;" xml:space="preserve">
<g>
	<g>
		<path d="M284.7,131.8c-0.7-0.7-15.2-17-39.1-33.6c-14.2-9.7-28.4-17.3-42.6-22.9c-18-6.9-35.7-10.7-53-10.7
			c-17.3,0-35,3.5-53,10.7c-14.2,5.5-28.4,13.2-42.6,22.9c-23.9,16.6-38.4,46.6-39.1,47.3l-3.8,4.5l3.8,4.5
			c0.7,0.7,15.2,30.7,39.1,47.3c14.2,9.7,28.4,17.3,42.6,22.9c18,6.9,35.7,10.7,53,10.7c17.3,0,35-3.5,53-10.7
			c14.2-5.5,28.4-13.2,42.6-22.9c23.9-16.6,38.4-46.6,39.1-47.3l3.8-4.5L284.7,131.8z M237.9,177c-20.8,14.2-52.6,31.2-87.9,31.2
			c-35.3,0-67.2-17-87.9-31.2c-15.6-10.7-27-21.5-32.9-27.4c5.9-5.9,17.3-16.6,32.5-27c20.8-14.2,52.6-31.2,87.9-31.2
			s67.2,17,87.9,31.2c15.6,10.7,27,21.5,32.9,27.4C265,155.9,253.5,166.6,237.9,177z M150,110.2c-22,0-39.8,17.8-39.8,39.8
			c0,22,17.8,39.8,39.8,39.8c22,0,39.8-17.8,39.8-39.8C189.8,128.1,172,110.2,150,110.2z"/>
	</g>
</g>
</svg>
