<svg id="Layer_1" data-name="Layer 1" xmlns="http://www.w3.org/2000/svg" viewBox="0 0 300 300"><title>Untitled-1</title><path d="M89.33,245.45A6.75,6.75,0,1,0,96,252.19,6.46,6.46,0,0,0,89.33,245.45ZM249,77.22,184,15.13A26.58,26.58,0,0,0,165,7.5H90c-26,0-47.5,21.88-47.5,48.35v188.3c0,26.47,26.33,48.35,52.33,48.35H210c26,0,47.5-21.88,47.5-48.35V97.58A27.94,27.94,0,0,0,249,77.22ZM175.65,22.47l64.65,61.9H191.65a16,16,0,0,1-16-16.29Zm70.54,73V241.75c0,19.05-11.35,41.15-39.91,40.55H93.72c-28.57-2.93-39.91-22.11-39.91-41.16v-181c-1.88-23.46,17-42.44,36.86-42.39h75.45V65.33c0,15.87,13,29.1,28.6,29.1h51.47ZM134.13,223.18H123.59l-6.7,10.47-6.63-10.47H99.45l12,17.6L99,258.91h10.54l7.16-11.13,7.17,11.13h10.8l-12.53-18.27Zm48.8-.67c-4.84,0-8.55,2-11.67,5.67-1.85-3.6-5.37-5.67-10-5.67-5.11,0-8.16,2.74-10.48,5.74v-5.07H140.69v35.73h10.08V239c0-4.8,2.32-7.27,6.1-7.27s5.91,2.47,5.91,7.27v19.93h10.07V239c0-4.8,2.32-7.27,6.11-7.27s5.9,2.47,5.9,7.27v19.93h10.08V235.64C194.94,227.05,190.43,222.51,182.93,222.51Zm31.29-12.26H204.15v48.66h10.07Z"/></svg>